<?xml version="1.0" encoding="UTF-8" standalone="no"?>
<!-- Generator: Adobe Illustrator 26.5.0, SVG Export Plug-In . SVG Version: 6.00 Build 0)  -->

<svg
   version="1.1"
   id="Layer_1"
   x="0px"
   y="0px"
   viewBox="0 0 509 716.1"
   style="enable-background:new 0 0 509 716.1;"
   xml:space="preserve"
   sodipodi:docname="korea.svg"
   inkscape:version="1.4.3 (0d15f75, 2025-12-25)"
   xmlns:inkscape="http://www.inkscape.org/namespaces/inkscape"
   xmlns:sodipodi="http://sodipodi.sourceforge.net/DTD/sodipodi-0.dtd"
   xmlns="http://www.w3.org/2000/svg"
   xmlns:svg="http://www.w3.org/2000/svg"><defs
   id="defs5" /><sodipodi:namedview
   id="namedview5"
   pagecolor="#ffffff"
   bordercolor="#000000"
   borderopacity="0.25"
   inkscape:showpageshadow="2"
   inkscape:pageopacity="0.0"
   inkscape:pagecheckerboard="0"
   inkscape:deskcolor="#d1d1d1"
   inkscape:zoom="5.6568542"
   inkscape:cx="425.76667"
   inkscape:cy="322.88264"
   inkscape:window-width="2560"
   inkscape:window-height="1351"
   inkscape:window-x="-9"
   inkscape:window-y="-9"
   inkscape:window-maximized="1"
   inkscape:current-layer="Layer_1" />
<style
   type="text/css"
   id="style1">
	.st0{fill:#B8B8B8;stroke:#FFFFFF;stroke-width:0.5;}
	.st1{fill:none;stroke:#000000;stroke-width:0.5;}
</style>

<g
   id="trash"
   transform="translate(-0.125)"
   inkscape:label="잡다한것">
	
	
	
	
	
	
	
	
	
	
	
	
	
	
	
	
	
	
	
	
	
	
<path
   style="enable-background:new 0 0 509 716.1;fill:#b8b8b8;fill-opacity:1;stroke:none;stroke-opacity:1"
   d="m 353.8,579.1 -0.8,0.2 -0.6,-0.2 -0.3,-0.7 -0.4,-5.1 0.3,-1.2 0.1,-0.1 1.9,0.4 z"
   id="path59"
   transform="translate(0.125)" /><path
   style="enable-background:new 0 0 509 716.1;stroke:none;stroke-opacity:1;fill:#b8b8b8;fill-opacity:1"
   d="m 309.2,595.6 -1.5,-4.2 3.5,-1 4.5,2.3 -1.5,0.4 -0.6,-0.1 z"
   id="path58"
   transform="translate(0.125)" /><path
   style="enable-background:new 0 0 509 716.1;stroke:none;stroke-opacity:1;fill:#b8b8b8;fill-opacity:1"
   d="m 318.3,623.3 5.7,2.8 -7.4,3.2 -0.6,-6.4 z"
   id="path57"
   transform="translate(0.125)" /><path
   style="enable-background:new 0 0 509 716.1;stroke:none;stroke-opacity:1;fill:#b8b8b8;fill-opacity:1"
   d="m 311.4,596.9 2.2,-3.2 v 0 l 0.6,-0.1 h 0.1 l 1.7,-0.4 3.9,4.2 -3.3,2.9 z"
   id="path56"
   transform="translate(0.125)" /><path
   style="enable-background:new 0 0 509 716.1;stroke:none;stroke-opacity:1;fill:#b8b8b8;fill-opacity:1"
   d="m 345.7,602.3 -0.6,-2 0.1,-1.5 0.5,2.6 2.6,-1.6 -2.6,-2.5 0.7,-0.7 4.9,7.9 -2.4,1.5 -2.9,-1.6 0.6,-1 z"
   id="path55"
   transform="translate(0.125)" /><path
   style="enable-background:new 0 0 509 716.1;stroke:none;stroke-opacity:1;fill:#b8b8b8;fill-opacity:1;stroke-width:0.5;stroke-dasharray:none"
   d="m 289.3,580.9 -2.4,8.5 4.8,-4.7 0.8,6.9 4.1,2.6 -2.4,0.8 h -0.3 l -2.1,-0.8 -1.7,-1.1 v 0 0 l -2.1,0.8 -6.2,-1.1 -1.1,-3.6 3.3,-3.8 0.4,-1.3 2.4,-2.4 0.3,-0.3 1,-0.2 z"
   id="path60" /><path
   style="enable-background:new 0 0 509 716.1;fill:#b8b8b8;fill-opacity:1;stroke:none;stroke-opacity:1;stroke-width:0.5;stroke-dasharray:none"
   d="m 249.1,584.6 3.7,1.2 v 2.8 l -5.4,0.3 1.6,-4.3 z"
   id="path64"
   transform="translate(0.125)" /><path
   style="enable-background:new 0 0 509 716.1;fill:#b8b8b8;fill-opacity:1;stroke:none;stroke-opacity:1;stroke-width:0.5;stroke-dasharray:none"
   d="m 252.7,621.1 1.3,-2.6 1.2,-0.9 -1.1,-1.8 -1.7,-3.6 -0.2,-1.8 6.1,2.8 0.3,2.5 -3.9,-0.6 6.1,6.7 -0.6,11.5 -6.6,-0.8 -5.1,-4.5 0.8,-3.2 0.5,-1.1 0.2,-0.7 0.2,-0.2 z"
   id="path63"
   transform="translate(0.125)" /><path
   style="enable-background:new 0 0 509 716.1;fill:#b8b8b8;fill-opacity:1;stroke:none;stroke-opacity:1;stroke-width:0.5;stroke-dasharray:none"
   d="m 241.8,638.5 -1.5,-4.3 7.3,2.6 z"
   id="path62"
   transform="translate(0.125)" /><path
   style="enable-background:new 0 0 509 716.1;fill:#b8b8b8;fill-opacity:1;stroke:none;stroke-opacity:1;stroke-width:0.5;stroke-dasharray:none"
   d="m 251.5,639 4.6,3 2.7,6.8 -12.1,-7.9 3.9,-1.8 z"
   id="path61"
   transform="translate(0.125)" /><path
   style="enable-background:new 0 0 509 716.1;stroke:none;stroke-opacity:1;fill:#b8b8b8;fill-opacity:1"
   d="m 215.2,640.1 3.2,1 -2.7,3.7 5.5,1.8 -0.4,2.6 -5,1 h -0.7 l -1.4,-1.9 0.2,-0.8 2,-1.4 -3.2,-2.3 v 0 l 0.2,-0.4 1.1,-1.8 v 0 l 0.6,-0.7 z"
   id="path76"
   transform="translate(0.125)" /><path
   style="enable-background:new 0 0 509 716.1;stroke:none;stroke-opacity:1;fill:#b8b8b8;fill-opacity:1"
   d="m 184.4,647.6 2.5,3.3 -3.5,7 -14.1,-2.1 -0.5,-4.9 v 0 l 2.5,-2.5 3.5,2.7 3.4,-1.8 5.4,-1.4 z"
   id="path75"
   transform="translate(0.125)" /><path
   style="enable-background:new 0 0 509 716.1;stroke:none;stroke-opacity:1;fill:#b8b8b8;fill-opacity:1"
   d="m 215.6,650.7 3.4,2.9 2.8,-2.5 v 0 l 4.3,4.3 -0.8,3.7 -5.7,1.5 0.7,-3 -3.9,-1.8 2.9,-0.6 -4.6,-0.2 0.6,-1.9 v -2.2 z"
   id="고흥군"
   transform="translate(0.125)" /><path
   style="enable-background:new 0 0 509 716.1;fill:#b8b8b8;fill-opacity:1;stroke:none;stroke-opacity:1"
   d="m 63.1,666.5 0.4,-3.1 3.4,1.2 z"
   id="path79"
   transform="translate(0.125)" /><path
   style="enable-background:new 0 0 509 716.1;fill:#b8b8b8;fill-opacity:1;stroke:none;stroke-opacity:1"
   d="m 28.6,678.1 3,-4.2 6.5,2.2 0.7,4.6 -4.8,-0.1 z"
   id="진도군"
   transform="translate(0.125)" /><path
   style="enable-background:new 0 0 509 716.1;stroke:none;stroke-opacity:1;fill:#b8b8b8;fill-opacity:1"
   d="m 135,655.5 1.1,3.6 -2.5,0.3 1.2,0.6 2.1,-0.5 2,4.5 -0.1,0.1 -9.2,1 -1.8,4.7 -0.8,-0.3 -0.9,-1.5 1.8,-2.8 -2.8,-1.9 1,-2.7 1.2,-1.7 2.2,-1.7 1.6,0.1 1.5,-0.7 z"
   id="path90"
   transform="translate(0.125)" /><path
   style="enable-background:new 0 0 509 716.1;stroke:none;stroke-opacity:1;fill:#b8b8b8;fill-opacity:1"
   d="m 134.9,660 v 0 0 z"
   id="path89"
   transform="translate(0.125)" /><path
   style="enable-background:new 0 0 509 716.1;stroke:none;stroke-opacity:1;fill:#b8b8b8;fill-opacity:1"
   d="m 111.5,673.3 v 0 0 0 z"
   id="path87"
   transform="translate(0.125)" /><path
   style="enable-background:new 0 0 509 716.1;stroke:none;stroke-opacity:1;fill:#b8b8b8;fill-opacity:1"
   d="m 111.5,673.3 v 0 0 z"
   id="path86"
   transform="translate(0.125)" /><path
   style="enable-background:new 0 0 509 716.1;stroke:none;stroke-opacity:1;fill:#b8b8b8;fill-opacity:1"
   d="m 166.2,668.6 3.1,3.7 -4.3,-1.5 1.3,2.3 -4.6,3.7 1.3,-4.9 -8.6,-3.2 v 0 l 0.6,-0.2 3.2,-2.3 2,-0.6 1.8,4.6 3.6,-1.5 z"
   id="path85"
   transform="translate(0.125)" /><path
   style="enable-background:new 0 0 509 716.1;stroke:none;stroke-opacity:1;fill:#b8b8b8;fill-opacity:1"
   d="m 129.3,671 1.8,1.7 3.7,-3.9 8.1,2.2 -1.8,5.4 -11.5,-1 -3.3,-2 -1.1,-0.7 -0.5,0.2 0.4,-0.5 v 0 l -0.1,-0.6 3.5,-1.1 z"
   id="path84"
   transform="translate(0.125)" /><path
   style="enable-background:new 0 0 509 716.1;stroke:none;stroke-opacity:1;fill:#b8b8b8;fill-opacity:1"
   d="m 125.2,672.5 v 0 0 z"
   id="path83"
   transform="translate(0.125)" /><path
   style="enable-background:new 0 0 509 716.1;stroke:none;stroke-opacity:1;fill:#b8b8b8;fill-opacity:1"
   d="m 99.4,687.9 8.1,5 v 0 l -3,0.4 1.8,2.8 -3.8,-1.5 0.1,3 -2.6,-0.6 -0.8,-0.3 -1.8,-2.2 1,-1.3 -0.2,-0.8 0.4,-1.9 -0.3,-2.4 z"
   id="path82"
   transform="translate(0.125)" /><path
   style="enable-background:new 0 0 509 716.1;stroke:none;stroke-opacity:1;fill:#b8b8b8;fill-opacity:1"
   d="m 142.2,691.1 3.5,4.7 -1.5,5.6 -7.6,-2 1.1,-5.7 1.9,-1.6 1.5,-0.9 z"
   id="path81"
   transform="translate(0.125)" /><path
   style="enable-background:new 0 0 509 716.1;stroke:none;stroke-opacity:1;fill:#b8b8b8;fill-opacity:1"
   d="m 110.7,693.5 2.4,0.8 1.9,2.7 -3.6,1.1 3.6,3.6 -3,5.6 -4.1,-5.4 0.4,-1.1 2.8,-2.6 -2.3,-1.7 1.9,-3 z"
   id="path80"
   transform="translate(0.125)" /><path
   style="enable-background:new 0 0 509 716.1;stroke:none;stroke-opacity:1;fill:#b8b8b8;fill-opacity:1"
   d="m 106.3,701.4 -2.8,-2.1 -8,6 -3.6,-2.6 3.6,-6.1 3,0.7 1.4,0.7 1.3,0.3 0.8,-0.2 h 0.5 l 1.3,0.2 3.7,1.8 v 0.1 z"
   id="완도군"
   transform="translate(0.125)" /><path
   style="enable-background:new 0 0 509 716.1;fill:#b8b8b8;fill-opacity:1"
   d="m 39.246447,582.87678 v 0 z"
   id="path103"
   transform="translate(0.125)" /><path
   style="enable-background:new 0 0 509 716.1;fill:#b8b8b8;fill-opacity:1"
   d="m 46.446447,597.17678 3.2,2.9 -1.2,4.6 -1.6,0.5 -1,-0.2 -0.3,0.3 -1.3,-1.1 -4.7,-2.6 -0.5,-0.3 4.1,-1.6 3.3,-0.1 z"
   id="path102"
   transform="translate(0.125)" /><path
   style="enable-background:new 0 0 509 716.1;fill:#b8b8b8;fill-opacity:1"
   d="m 31.546447,633.77678 -2.3,1.9 -1.1,-10 3.8,-0.2 2.8,6.2 0.2,1.5 -0.3,1 -0.7,1 -0.2,0.1 -0.2,-0.1 z"
   id="path101"
   transform="translate(0.125)" /><path
   style="enable-background:new 0 0 509 716.1;fill:#b8b8b8;fill-opacity:1"
   d="m 46.946447,618.97678 4,5.5 2.1,0.4 -9.3,3.3 -1,-0.4 1.3,-4 -2.3,-1.5 2,-1.3 z"
   id="path100"
   transform="translate(0.125)" /><path
   style="enable-background:new 0 0 509 716.1;fill:#b8b8b8;fill-opacity:1"
   d="m 42.646447,564.87678 6.6,-0.4 0.8,7.8 v 0 l -4.7,3.5 v 0 l -0.9,-0.2 -0.7,0.4 2.8,-6.4 -5.1,-1 z"
   id="path99"
   transform="translate(0.125)" /><path
   style="enable-background:new 0 0 509 716.1;fill:#b8b8b8;fill-opacity:1"
   d="m 33.546447,625.47678 6.2,3.3 0.6,2.3 -0.5,5.3 0.2,1.1 -0.2,0.3 -0.6,-0.3 -8.4,3.5 3.9,-2.7 -3.6,-2.4 h 2.4 l 1.5,0.9 1,-2 2.1,-2 -2.3,-1.4 z"
   id="path98"
   transform="translate(0.125)" /><path
   style="enable-background:new 0 0 509 716.1;fill:#b8b8b8;fill-opacity:1"
   d="m 41.746447,586.47678 6.1,3 -2.9,-0.2 0.8,5.5 v 0 l -2.7,-1.1 -0.3,5.2 -3.1,0.7 -3,-2.7 -1.6,-5.5 1.3,-0.5 1.7,-1.1 0.9,-0.2 3.4,1.6 z"
   id="path97"
   transform="translate(0.125)" /><path
   style="enable-background:new 0 0 509 716.1;fill:#b8b8b8;fill-opacity:1"
   d="m 32.946447,556.67678 2.5,-0.2 -0.9,-4.9 8.4,-6.2 5.4,0.2 -4.5,1.7 -0.4,4.5 0.4,1.6 v 1.6 l -0.4,1.4 -0.5,2.1 -4,1 -1,-0.6 v -2.1 l -1.8,2.1 z"
   id="path96"
   transform="translate(0.125)" /><path
   style="enable-background:new 0 0 509 716.1;fill:#b8b8b8;fill-opacity:1"
   d="m 22.146447,608.77678 2,2.9 4.8,2.6 -7.3,6.9 -0.5,-0.2 -3.9,-2.3 -1.1,-6.1 1.1,-0.4 1.7,-0.5 1.3,-1.1 z"
   id="path95"
   transform="translate(0.125)" /><path
   style="enable-background:new 0 0 509 716.1;fill:#b8b8b8;fill-opacity:1"
   d="m 19.546447,602.37678 7.5,-4.3 0.1,0.3 0.1,6.6 -3.6,0.2 -2.2,-1.3 -1.7,6.4 -0.3,0.6 -0.4,0.3 h -0.1 l -1.5,0.4 -0.2,0.1 -3.7,-1.8 0.8,-8.1 z"
   id="path94"
   transform="translate(0.125)" /><path
   style="enable-background:new 0 0 509 716.1;fill:#b8b8b8;fill-opacity:1"
   d="m 38.646447,603.07678 4.9,0.6 0.3,0.6 1.5,1.8 1.7,-0.2 2.6,1.2 0.9,3.4 0.4,0.6 -0.7,2.7 -3.7,1 -1.5,-4.6 -2.5,2.2 -5.5,0.8 v -0.8 l -1.3,-8.6 0.8,0.1 z"
   id="path93"
   transform="translate(0.125)" /><path
   style="enable-background:new 0 0 509 716.1;fill:#b8b8b8;fill-opacity:1"
   d="m 64.146447,589.37678 -0.5,-3.7 h 3.1 l -2.8,-4 h 4.8 l 0.8,0.3 1.3,0.3 2,1.7 -5,3 7.1,3.4 -1.5,6.8 -6.5,-6.2 -5.2,1.8 -0.3,0.3 -1.4,-0.3 -3.2,-1 0.8,-2.7 z"
   id="path92"
   transform="translate(0.125)" /><path
   style="enable-background:new 0 0 509 716.1;fill:#b8b8b8;fill-opacity:1"
   d="m 39.246447,582.87678 0.8,2 -2.3,1.4 0.7,2.6 -0.4,0.1 -0.2,-0.1 -1.5,0.9 -0.4,0.2 -1.7,0.4 -0.8,1.4 -0.6,0.1 -2.2,-4.4 -1.9,1.8 -0.4,0.1 -3.9,-0.9 -1.2,-1.4 6,-5.9 5.5,0.3 0.1,-4.3 z"
   id="path91"
   transform="translate(0.125)" /><path
   d="m 87,353 2.5,3.1 -0.1,0.1 -3.2,-1.1 -6.1,-2.2 0.2,-0.5 1.4,-0.3 3,-0.4 h 1.8 z"
   id="보령시"
   style="enable-background:new 0 0 509 716.1;fill:#b8b8b8;fill-opacity:1"
   transform="translate(0.125)" /><path
   style="enable-background:new 0 0 509 716.1;fill:#b8b8b8;fill-opacity:1"
   d="m 60.3,134.1 7.6,-7 8.7,3.3 -0.5,1.2 v 0.1 l -2.2,2.4 -1.8,1 h -0.2 l -3.4,-0.4 -1.3,0.6 -3.4,2 z"
   id="path107"
   transform="translate(0.125)" /><path
   style="enable-background:new 0 0 509 716.1;fill:#b8b8b8;fill-opacity:1"
   d="m 80.8,151.4 -3.4,3 -2.8,-5.7 -6.4,-4.8 2.7,-5.1 3,-1.1 1.9,0.7 -0.9,1.2 -0.1,4.5 4.4,2.4 1.3,0.3 1.4,1.9 -0.2,0.8 -0.5,1.7 z"
   id="강화군"
   transform="translate(0.125)" /><path
   id="중구_00000090283923639619113360000014432887308064126373_"
   class="st0"
   d="m 84.4,191.1 3.4,5.5 -0.5,0.6 -1.2,0.6 -3.7,-3.8 1.5,-3.1 z m 24.6,-11.7 -0.4,1 1.1,-0.4 3.5,2.3 -1.6,4.2 -0.9,1.8 h -1.1 -0.5 l -0.1,-0.1 0.1,-3.8 -2.1,2.4 -0.4,-3.6 1.1,-0.6 v -0.1 l -0.3,-1.5 z m -13.5,-7 7.4,2.3 h 0.7 l 2.2,4.2 -17.7,10.6 -1.7,-0.3 -1.6,1 -0.3,-0.1 -2.1,-4.7 -3.9,0.7 -0.5,-4.8 6.7,-3.1 3.4,-0.7 2.2,-0.1 1.9,-0.1 2.8,-2.7 0.2,-1.4 z m 12.5,10.2 v 0 0 0 z"
   style="enable-background:new 0 0 509 716.1"
   transform="translate(0.125)" /><path
   id="옹진군"
   class="st0"
   d="m 17.3,189 v 0 0 0 z m 0,0 v 0 h -0.2 z m -0.4,-6.3 h -0.2 l -5.6,3.9 2.9,3.4 3.8,-1.9 -0.9,-5.4 z m 71.8,-8.3 2.5,0.9 h 0.6 l -0.1,-1.1 0.5,-1.5 v 0 -1.1 l -1,-0.8 -0.4,-0.4 -3.7,4.1 0.8,0.5 z m -42.9,37.6 -2.5,7.9 6.5,1.7 1.2,-0.3 -0.4,-1 2.6,-1.7 z m -30.6,-43.8 -6.1,1.7 -2.6,-1.8 2.3,8.8 7.3,1.3 6.3,-6.1 -2.8,-4 z m 71.8,44.3 -0.4,6.4 1,0.3 1.6,-1.8 0.9,3 4.8,-6.6 0.1,-1.6 z m -36.3,7.8 v 0 0 z m -8.8,-32.3 -3.2,-0.2 -0.2,1.8 3,1.5 v -1.5 z"
   style="enable-background:new 0 0 509 716.1"
   transform="translate(0.125)" /><path
   style="enable-background:new 0 0 509 716.1;stroke:#000000;stroke-opacity:1;fill:#b8b8b8;fill-opacity:1"
   d="m 504.1,366 v 0 0 0 z"
   id="path110"
   transform="translate(0.125)" /><path
   style="enable-background:new 0 0 509 716.1;stroke:none;stroke-opacity:1;fill:#b8b8b8;fill-opacity:1"
   d="m 483,653.3 1.7,5.3 -3,-0.7 0.7,-4.3 z"
   id="jejud"
   transform="translate(0.125)" /></g>
















<path
   id="ulsan"
   style="enable-background:new 0 0 509 716.1;stroke:#000000;stroke-opacity:1"
   class="st0"
   d="M 458.55658 465.75112 L 449.85736 470.85073 L 450.45697 478.65151 L 446.05658 477.54995 L 440.45697 482.35073 L 442.65618 487.95034 L 436.55658 491.75112 L 439.85736 494.04995 L 439.55658 496.65151 L 447.35736 495.85073 L 458.75579 509.04995 L 465.75579 510.25112 L 468.55658 514.85073 L 466.35736 518.04995 L 474.55658 518.04995 L 479.65618 526.85073 L 486.95697 522.15151 L 484.35736 519.35073 L 486.35736 511.45034 L 484.85736 507.04995 L 484.65618 505.75112 L 485.15618 505.35073 L 484.23431 504.7062 L 484.34173 504.7062 L 485.25579 505.35073 L 485.95697 506.45034 L 490.05658 502.04995 L 485.65618 499.04995 L 489.95697 499.45034 L 489.45697 497.65151 L 485.95697 495.75112 L 488.55658 495.75112 L 485.6347 493.35268 L 489.15618 495.45034 L 490.52728 496.22182 L 490.27337 497.01674 L 490.75189 499.21792 L 491.80267 501.82143 L 491.70697 502.12026 L 491.70697 503.32143 L 491.99408 504.42299 L 496.58001 501.31948 L 497.23431 489.07534 L 497.75579 488.85073 L 497.25579 476.45034 L 484.95697 472.25112 L 477.75579 477.95034 L 477.74603 478.04799 L 472.65618 475.54995 L 472.75579 469.25112 L 458.55658 465.75112 z "
   transform="translate(-27.177669,-11.850728)"
   inkscape:label="울산" /><path
   id="seoul"
   class="st0"
   d="M 160.99971 146.19936 L 160.09932 148.90053 L 158.09932 149.59975 L 156.99971 156.40053 L 157.09932 156.40053 L 157.30049 156.50014 L 155.9001 157.09975 L 153.80049 157.40053 L 152.49971 152.80092 L 147.20088 154.30092 L 146.80049 162.69936 L 144.30049 163.40053 L 140.70088 166.40053 L 134.4001 161.09975 L 133.30049 164.80092 L 129.80049 169.00014 L 136.66963 171.15834 L 136.82588 171.45717 L 137.30049 176.19936 L 135.80049 181.50014 L 138.09932 181.09975 L 143.20088 179.90053 L 146.20088 187.19936 L 149.9001 185.40053 L 152.4001 187.30092 L 154.30049 186.90053 L 157.4001 184.19936 L 163.20088 183.30092 L 164.70088 188.59975 L 170.70088 184.59975 L 174.30049 183.00014 L 176.80049 181.90053 L 176.99971 175.09975 L 181.80049 170.69936 L 179.9001 165.40053 L 173.30049 168.90053 L 171.49971 166.19936 L 172.09932 158.90053 L 172.80049 155.50014 L 169.09932 147.09975 L 165.49971 148.69936 L 160.99971 146.19936 z "
   style="enable-background:new 0 0 509 716.1;stroke:#000000;stroke-opacity:1"
   transform="translate(-0.13838,-0.132952)"
   inkscape:label="서울" /><path
   id="busan"
   class="st0"
   d="m 438.82258,506.31087 -2.89844,5.70118 -7.70117,-2.59961 2.09961,2.69922 -3.17773,7.34961 -7.72071,4.8496 -4.30078,0.10157 -2.09961,6 -0.006,0.0273 -14.09375,3.67188 -1.10156,9.90039 -1.59961,-2.70118 -8.90039,1.80079 6.40039,6.80078 -1.10547,2.34179 -1.10742,1.45313 -1.98633,1.80469 1.90039,1.19922 -3.60156,2.5 4.10156,10.0996 2.69922,-8.29882 -1.58008,-4.97852 1.04297,-1.36523 8.4375,0.44336 2.35157,-2.1543 h 0.30468 l 2.34375,1.85351 0.59961,3.30079 2,3.30078 0.0996,-3 4.40039,1.19922 -0.043,-0.46094 h 0.31446 l 0.0293,0.26172 1.69922,-1.70117 0.19922,-2.29883 0.89258,-1.48633 2.02148,1.20508 0.0234,-0.0684 5.96289,3.94922 -1.90039,-5.5 -3.18164,-1.11133 -1.73047,-1.03125 1.21289,-1.85742 1.90039,-2.30078 v -0.0996 l -0.0996,-2.09961 0.29883,2.09961 0.0996,2.59961 3.40039,0.30078 0.40039,2.40039 3.5,-1 -0.40039,-5.60157 -0.99023,-1.16406 0.0781,-0.11719 0.51172,0.58204 1.70117,-3.09961 -0.70117,-0.80078 0.10156,-0.0996 1.09961,0.59961 0.90039,1 6.59961,-1.09961 1.75782,-3.22461 0.041,0.0254 6.40039,-21 5.5,-2.40039 -5.19922,-8.70118 z"
   inkscape:label="부산"
   style="stroke:#000000;stroke-opacity:1" /><path
   id="yangsan"
   style="display:inline;fill:#b8b8b8;stroke:#000000;stroke-width:0.5"
   class="st0"
   inkscape:label="양산"
   d="m 397.2,507.8 2,-5 4.3,-0.9 -1.9,-3.9 7.3,-3.6 -1.2,-6 4.5,-3.6 7.9,-0.8 11.3,13.4 7.1,1.2 2.8,4.6 -2.3,3.1 -2.8,5.7 -7.8,-2.6 2.2,2.7 -3.2,7.4 -7.8,4.9 -4.3,0.1 -6,-8.5 z" /><path
   id="gimhae"
   class="st0"
   d="M383.1,513.8l12.1-8l1.9,2.1l12.1,8.1l6,8.6l-2.1,5.9l-14.2,3.7l-1.1,9.9l-1.6-2.7l-8.9,1.8   l-6.8-1.5l-2.1-11l-4.4-11L383.1,513.8z"
   style="enable-background:new 0 0 509 716.1;stroke:#000000;stroke-opacity:1"
   inkscape:label="김해" /><path
   id="miryang"
   style="display:inline;fill:#b8b8b8;stroke:#000000;stroke-width:0.5"
   class="st0"
   inkscape:label="밀양"
   d="m 358.5,494.3 2.3,-17.6 12.1,-1.8 12.5,4.2 2.2,-3.5 5.5,-0.2 4.4,-7.2 h 7.7 l 5.3,4 2.6,-1.8 2.2,5.6 -6.1,3.8 3.3,2.4 -0.3,2.6 -4.5,3.6 1.2,6 -7.3,3.6 1.9,3.9 -4.3,0.9 -2,5 -1.9,-2 -12.2,8 -14.5,-4.5 -0.1,-8 z" /><path
   id="gyeongju"
   class="st0"
   d="M430.9,402.1l3.9,4.2l8.4-7.7l4.9,2l-1.1,5.6l11,25.2l6.1,1l2.2-4.2l3.9,5.8l6.7,1.2l-6.8,29.4   l-12.3-4.2l-7.2,5.7l-5.3-2.6l0.1-6.3l-14.2-3.5l-8.7,5.1l0.6,7.8l-4.4-1.1l-1.3-7l-4.4,0.3l-4-6.7l5.1-17.1l1.3-9.5l4.8-5.5   l6.5,3.7l2.3-1.7l-3.1-12.2l4.2-0.8l-1.3-3.8L430.9,402.1z"
   style="enable-background:new 0 0 509 716.1;stroke:#000000;stroke-opacity:1"
   inkscape:label="경주" /><path
   id="pohang"
   class="st0"
   d="m 448.73171,359.72677 -5.79883,0.5 -10,15.30078 -4.90039,-5.70117 -9.30078,-1.29883 -0.19922,0.29883 -0.59961,1.5 3.59961,3.80078 -11.5,10.59961 7,1.80078 3.5,6.5 3.5,-1.30078 -0.5,4 7.40039,6.40039 3.89844,4.19922 8.40039,-7.69922 4.90039,2 0.16992,0.15039 -1.07031,5.44922 11,25.20117 6.09961,1 2.20117,-4.20117 3.90039,5.80078 6.69922,1.19922 3.19922,-5.09961 -2.09961,-1.09961 -0.19922,-7.90039 8,-14.09961 -3.40039,-11.5 -4.09961,5.40039 -0.70117,1.39844 -6.39844,6.5 -2.70117,2.70117 -5.59961,-4.70117 3.80078,-1.5 -5.00976,0.3457 -1.88672,-4.75 0.0957,-0.19531 7.59961,-8.19922 -5.5,-2.59961 v -4.60156 l -0.29883,-0.5 -1.20117,-3.59961 -0.5,-0.0996 -1.59961,-3.5 0.19922,-9.40039 -9.09961,0.20117 z"
   inkscape:label="포항"
   style="stroke:#000000;stroke-opacity:1" /><path
   id="yeongcheon"
   style="fill:#b8b8b8;stroke:#000000;stroke-width:0.5"
   class="st0"
   inkscape:label="영천"
   d="m 373.1,409 0.1,-3.1 6,-11.6 7.3,3.6 7,-9.3 3.7,0.3 0.9,-4.8 12,0.6 7,1.8 3.4,6.5 3.5,-1.3 -0.5,4.1 7.4,6.3 -2.1,3.2 1.3,3.8 -4.2,0.7 3.1,12.2 -2.3,1.7 -6.5,-3.7 -4.8,5.5 -1.3,9.5 H 414 l -5.6,1.7 -11.1,-1 -3.3,-17.2 -9.3,-5.3 -6.6,-0.7 z" /><path
   id="daegu"
   class="st0"
   inkscape:label="대구"
   d="m 373.27668,409.00017 -2.79883,0.5 -4.20117,0.5 -4.69922,3.5 -5.40039,2.40039 h -0.0996 l -4,-1.09961 0.69922,7.5 -0.39844,0.79883 -0.10156,0.60156 -0.89844,1.09961 -2.18945,3.98047 -4.41211,-0.98047 0.80078,-5.70117 -2.80078,-1.29883 -7,6.79883 -1.5,7.60156 10.9043,2.67578 -0.004,0.0234 1.40039,2.80078 0.48828,0.3457 v 0.004 l -0.48828,-0.34961 -7.90039,1.09961 -4.69922,7.69922 6.29883,8.59961 -10.19922,0.20117 6.40039,10.09961 -3.80078,4.40039 17.09961,-4.59961 2.90039,-6.80078 -0.29883,-4.59961 10.69922,-4.09961 1.5,5.59961 8.80078,-6.59961 -1.5,-7.20117 -0.39062,-0.11914 v -0.12891 l 0.49023,0.14844 4.5,-2.69922 0.90039,-8 h 3.19922 l 1.5,-4.80078 -4.19922,-15.19922 0.39844,-1.20117 z"
   style="stroke:#000000;stroke-opacity:1" /><path
   id="gyeongsan"
   style="fill:#b8b8b8;stroke:#000000;stroke-width:0.5"
   class="st0"
   inkscape:label="경산"
   d="m 378.1,412.5 6.6,0.7 9.3,5.3 3.3,17.2 11.1,1.1 -3.2,7.5 -4.8,6.5 -1.5,-2.7 -5.6,3.6 -7.7,-0.3 -3.1,6.7 -9.1,-6.5 -1.6,-7.2 4.5,-2.7 0.9,-8 h 3.2 l 1.5,-4.8 -4.2,-15.2 v -0.1 z" /><path
   id="cheongdo"
   style="fill:#b8b8b8;stroke:#000000;stroke-width:0.5"
   class="st0"
   inkscape:label="청도"
   d="m 414,435.1 -5,17 3.9,6.7 4.4,-0.2 1.3,6.9 -5.5,4.9 -2.6,1.8 -5.3,-4 h -7.7 l -4.4,7.2 -5.5,0.2 -2.2,3.5 -12.5,-4.2 -12.1,1.8 -7.2,-6.1 -1,-9.3 -0.3,-4.6 10.7,-4.2 1.6,5.7 8.7,-6.6 9.2,6.5 3.1,-6.7 7.7,0.3 5.6,-3.6 1.5,2.7 4.8,-6.5 v -0.1 l 3.2,-7.4 v 0 z" /><path
   id="changwon"
   class="st0"
   d="m 362.2008,506.41101 -3.20117,2 -2.09961,4.39844 3.59961,12.60156 -12.19922,-0.10156 -1.36133,13.02929 -0.61523,0.7461 -7.52344,2.72461 -2.40039,-5.5 -4,1.80078 -2.30078,10.5 6.70117,6.69922 3.5,-0.5 -0.5,4.70117 1.5,-1.09961 2,-1.5 1.79883,-0.40039 1.70117,-0.40039 -3.59961,-4.5 8.69922,1.19922 2.5,-3.59961 1.19922,4.30078 5,0.90039 -2.69922,0.69922 -0.19922,2.40039 3.29883,-0.0996 -2.09961,1.89844 7.5,-1.79883 -2.40039,-1.30078 2,-1.5 -5.40039,-5.69922 0.20117,-0.80078 -0.59961,-0.40039 1.89844,-2.09961 -1.19922,-2.90039 -0.30078,-0.69922 -0.79883,-1.19922 0.40625,-3.24805 h 0.89062 l 0.30274,2.64649 0.30078,0.70117 0.5,1.09961 1.5,2.19922 2.16602,-1.74805 h 0.81836 l -3.08594,3.24805 -0.19922,0.20117 -0.0996,0.29883 2.79883,1 0.10156,-2 2.19922,-0.79883 2.59961,4.90039 1.15234,-1.96094 1.84766,2.20899 v 2.45117 l 3.80078,1 3.19922,-0.90039 -0.29883,2.90039 3.19922,2 2.90039,-7 1.69922,2.30078 -2.69922,3.29883 3.90039,-0.0996 2.19922,-2 1.80078,-3.69922 -6.40039,-6.80078 -6.64649,-1.34961 -0.74609,-3.32031 -0.0137,0.002 -1.49414,-7.83203 -4.40039,-11 9.09961,-5.90039 -14.5,-4.5 -1.19922,0.5 z"
   inkscape:label="창원"
   style="stroke:#000000;stroke-opacity:1" /><path
   style="enable-background:new 0 0 509 716.1;stroke:#000000;stroke-opacity:1;fill:#b7b7b7;fill-opacity:1;stroke-width:0.5;stroke-dasharray:none"
   d="m 360.6,581.5 5.4,3.4 -5,-8.5 2.5,-3.6 5.6,1.9 0.6,-5.1 0.6,-1.3 1.1,-2.1 0.4,-1.7 0.5,-0.9 -0.1,-2 5.9,2.5 -3.6,4.5 4.2,12.6 -3.7,5.7 7.4,-2.5 -3.6,4.6 1.5,3.3 -1.6,0.7 2.3,8 -9.4,-3.7 0.8,4.2 -4.5,3.9 5.7,3.8 h -7.1 l 1.5,4.6 -7.9,0.1 3.9,-3.9 -4.1,-1.1 2.8,-6 -5.3,1.7 1.6,-3.1 1.5,-1.3 2.7,-5.6 -3.8,-3.8 -7.3,7.3 -1.1,-4.7 -3.4,-0.3 -0.9,-3.2 -0.4,-1.9 2.5,-4.4 1.1,-1.7 1.9,-0.7 1.1,-1.1 h 1.4 l 4,3.6 z"
   id="geoje"
   inkscape:label="거제" /><path
   id="tongyeong"
   style="enable-background:new 0 0 509 716.1;fill:#b7b7b7;fill-opacity:1;stroke:#000000;stroke-opacity:1;stroke-width:0.5;stroke-dasharray:none"
   d="M 337.19922 572.90039 L 328.80078 580.69922 L 330.80078 583.19922 L 325 583 L 324.40039 583.59961 L 324.09961 584.09961 L 328 587.90039 L 330.90039 586.09961 L 332.65234 587.57031 L 335.99609 590.73047 L 333.59961 591.30078 L 334.74414 592.74609 L 333.17578 594.19727 L 330.59961 593 L 329.40039 595.19922 L 329.30078 595.19922 L 333.22266 596.67969 L 333.86914 598.5 L 332.80078 600.40039 L 337.19922 605.09961 L 342 602.80078 L 342.59961 600.5 L 342.80078 599 L 342.69922 596.40039 L 342.59961 595.30078 L 341.69336 594.9707 L 341.69336 593.43359 L 342.69922 593.19922 L 343.90039 592.19922 L 344.40039 586.69922 L 345.90039 588.30078 L 343.69922 581.5 L 340.19922 588.30078 L 338.59961 584.40039 L 341.69922 579 L 339.59961 575.40039 L 341.30078 574.40039 L 337.19922 572.90039 z "
   inkscape:label="통영" /><path
   id="goseong"
   class="st0"
   d="M320.7,581.6l-0.7-3.9l-8.8,1.2l-0.3,3.9   l-1.1,2.4l-4.1-2.5l-2.6,3.2l-2.3-3.2l-2.1,1.6l1.2-3.6l1,0l1.9-9.1l4.5-0.7l-1.5-4.2l3.3-6.1l3.4-3.5l-3-2.2l2.8-4.3l17.8-2.1   l6.6,6.7l3.5-0.5l-0.5,4.7l-7.5,1.3l0.6,5.2l9.4-7.2l1-1.4l0.2-0.1l2-0.6l0.1-0.1l1.8,1.5l-2.9,2.9l5.4,5.3l-2,2.1l-0.8,1.1   l-9.1-0.1l4.5,3.3l-13.4,5.9l-2.2-4.3l-2.5,7.8l-0.1,0.1l-2.5-0.5L320.7,581.6z"
   style="enable-background:new 0 0 509 716.1;stroke:#000000;stroke-opacity:1"
   inkscape:label="고성" /><path
   id="sacheon"
   class="st0"
   d="M299.9,580.4l-5.6,0.2l-4.8-5.2l2.7-2.2L290,565l3-10.6l-4.8,9.8l-1.4-3.3l-4.7,1.7l5.8,4.5   l-0.7,3.7l-7.1,0.4L278,572l-1.2-2l-0.2-2.8l-1-0.8l1-5.4l-4.8-5.8l2.2-5.3l-4.1-3.9l7.7-1.1l7.7-0.5l0.6,6.4l6.2-2.7l5.3,4.7   l5.9-2.3l4.4,3.1l-3.1,2.8l4.7,4.1l-3.3,6.1l1.5,4.2l-4.5,0.7l-1.9,9.1l0,0L299.9,580.4L299.9,580.4z"
   style="enable-background:new 0 0 509 716.1;stroke:#000000;stroke-opacity:1"
   inkscape:label="사천" /><path
   id="jinju"
   style="fill:#b8b8b8;stroke:#000000;stroke-width:0.5"
   class="st0"
   inkscape:label="진주"
   d="m 277.5,544.8 -6.3,-11.7 2.5,0.6 1.5,-4.5 5.9,0.9 2.4,-6.3 8,-3.3 1.3,-4 7.1,0.3 5.3,-3.1 5.5,15 9.8,-0.6 12,9.9 -2.3,10.5 -17.9,2 -2.7,4.3 3,2.2 -3.4,3.5 v 0 l -4.7,-4.1 3.1,-2.8 -4.5,-3.1 -5.9,2.3 -5.3,-4.7 -6.1,2.7 -0.6,-6.4 z" /><path
   id="haman"
   style="fill:#b8b8b8;stroke:#000000;stroke-width:0.5;stroke-opacity:1"
   class="st0"
   inkscape:label="함안"
   transform="translate(-0.125)"
   d="m 346.6,508.6 4.2,-3.2 8.2,3.1 -2.1,4.4 3.6,12.6 -12.2,-0.1 -1.4,13.4 -8,2.9 -2.4,-5.6 -4,1.9 -12,-9.8 5.3,-16.3 9.6,4.3 -1.1,-3.7 5.6,-1.2 1.3,-4.5 z" /><path
   id="uiryeong"
   style="fill:#b8b8b8;stroke:#000000;stroke-width:0.5"
   class="st0"
   inkscape:label="의령"
   transform="translate(-0.125)"
   d="m 310.9,493.8 8.6,-5.3 14.2,-0.5 5.4,4.7 -5,3.5 -0.8,3.4 7.2,5.7 v 0 l 0.7,1.5 v 0 l -1.3,4.5 -5.6,1.2 1.2,3.7 h -0.1 l -9.6,-4.3 -5.3,16.2 -9.8,0.6 -5.5,-15 -5.3,3.1 -4.1,-6 13.7,-4.7 1.4,-5.5 z" /><path
   id="hapcheon"
   style="fill:#b8b8b8;stroke:#000000;stroke-width:0.5;stroke-opacity:1"
   class="st0"
   inkscape:label="합천"
   transform="translate(-0.125)"
   d="m 305.8,447 5.3,14.6 -5.2,1.6 -0.3,3.1 8.7,2.2 9.8,-2.6 5.9,1.7 1.6,4.8 -1.6,12 3.7,3.6 -14.2,0.5 -8.6,5.3 v 6.8 l -1.4,5.5 -13.7,4.7 -3.8,-7.5 -9.2,-5.2 -2.8,-10.4 5.1,-18.2 6.3,-7 5.4,-0.9 -7.4,-15.9 7,-7 z" /><path
   id="sancheong"
   style="fill:#b8b8b8;stroke:#000000;stroke-width:0.5;stroke-opacity:1"
   class="st0"
   inkscape:label="산청"
   transform="translate(-0.125)"
   d="m 269.5,486.2 10.5,1.5 2.8,10.4 9.2,5.2 3.8,7.5 4.1,6 -7.1,-0.3 -1.3,4 -8,3.3 -2.4,6.3 -5.9,-0.9 -1.5,4.5 -2.5,-0.6 -2.7,-5 -3.3,5.1 -8.6,1.2 -9.1,-7 -2.1,-8.5 5.4,-2.9 15.9,-36.3 z" /><path
   id="hadong"
   class="st0"
   d="m 275.1,569.6 v 0 0 z m -38.4,-52.8 8.7,2.1 2.1,8.5 9.2,7.1 8.6,-1.3 3.3,-5.1 2.7,5.1 6.3,11.7 v 0 l -7.7,1.1 4.1,3.9 -2.2,5.3 4.8,5.8 -1,5.4 -2.1,-1.3 2.1,2.5 -0.4,2 v 0 l 0.4,0.9 -1.5,2.8 -3.1,2.9 -5.1,0.8 -0.9,-2.6 -2.7,3.1 -1.4,-0.1 -2.9,0.6 -3.4,-4.1 3.5,-6.8 -2.4,-6.3 -18.5,-20.6 -6.1,-19.7 z"
   style="enable-background:new 0 0 509 716.1;stroke:#000000;stroke-opacity:1"
   transform="translate(-0.125)"
   inkscape:label="하동" /><path
   id="changnyeong"
   style="fill:#b8b8b8;stroke:#000000;stroke-width:0.5"
   class="st0"
   inkscape:label="창녕"
   transform="translate(-0.125)"
   d="m 353.6,470.6 7.2,6.1 -2.3,17.6 10,7 0.1,8 -1.2,0.5 -5.2,-3.3 -3.2,2 -8.2,-3.1 -4.2,3.2 -5.4,-1.8 -0.7,-1.5 -7.2,-5.7 0.8,-3.4 5,-3.5 -5.4,-4.7 -3.7,-3.6 1.6,-12 0.9,0.4 17.1,-4.6 3,-6.9 z" /><path
   id="geochang"
   style="fill:#b8b8b8;stroke:#000000;stroke-width:0.5;stroke-opacity:1"
   class="st0"
   inkscape:label="거창"
   transform="translate(-0.125)"
   d="m 271.3,430.1 3.4,-1.1 0.7,5.9 7.1,-0.5 3.9,4.6 8.3,-1.7 1.7,1.4 -7,7 7.4,15.9 -5.4,0.9 -6.3,7 -5.1,18.2 -10.5,-1.5 -2.8,-6.5 -2.7,-2.1 4.6,-6 0.7,-7.5 -5.4,1.5 -9.2,-10.9 -4,1.4 -6.6,-7.5 2.5,-3.1 5.7,-8.8 12.4,-3.4 2.2,-6.3 3.3,-0.5 z" /><path
   id="hamyang"
   style="fill:#b8b8b8;stroke:#000000;stroke-width:0.5;stroke-opacity:1"
   class="st0"
   inkscape:label="함양"
   transform="translate(-0.125)"
   d="m 250.7,456.1 4,-1.4 9.2,10.9 5.4,-1.5 -0.7,7.5 -4.6,6 2.7,2.1 -15.9,36.3 -5.4,2.9 -8.7,-2.1 v 0 l -1.4,-5.2 8.2,-12.5 -4.8,-2.1 2.1,-4.3 -3.2,-7.7 -5.6,-2.8 6.5,-10.1 -2,-4.3 7.6,-19.2 z" /><path
   style="enable-background:new 0 0 509 716.1;stroke:#000000;stroke-opacity:1;fill:#b8b8b8;fill-opacity:1;stroke-width:0.5;stroke-dasharray:none"
   d="m 268.3,578.4 3.7,-1.4 4.6,3.3 v 0.1 l -0.2,2.1 -4,6.2 2.5,5.8 3.5,4.1 5.9,-3.7 5.2,-0.2 2.4,0.9 1.3,1 -0.6,10.4 0.1,0.1 -2.6,3.9 3.3,3 -4.6,1.4 -1.2,-3.7 -7.4,2.4 -0.7,-10.6 -6.3,2.4 0.3,5.3 h -6.2 l -2.7,-3.5 2.9,-4.1 -6.1,-10.9 2,-5.8 -0.1,-1.6 0.1,-1.5 5.5,0.9 -2.1,-3.6 0.7,-1.7 z"
   transform="translate(-0.125)"
   id="namhae"
   inkscape:label="남해" /><path
   id="mokpo"
   class="st0"
   d="M79.5,592.4l7,4.6l0,0.2l0.4,3.1l-1.7,0.3l-2.1-0.4l-7.3,2l-0.4-0.1l-1.7-3.4L79.5,592.4z"
   style="enable-background:new 0 0 509 716.1;stroke:#000000;stroke-opacity:1"
   inkscape:label="목포" /><path
   style="enable-background:new 0 0 509 716.1;stroke:#000000;stroke-opacity:1;fill:#b8b8b8;fill-opacity:1;stroke-width:0.5;stroke-dasharray:none"
   d="m 246.3,589.9 10,0.5 -3.6,13.2 3.1,5.2 -3.7,1.1 -4.4,2.5 -6.3,-5.4 -1.9,7.6 -2.3,-1.8 -1.5,1.9 3.3,3.6 h -2.8 l 2.3,3.4 0.7,1.4 0.7,3.6 -0.2,0.2 -7.9,-3.9 -0.3,3.3 -3.6,-4.9 3.4,-6.4 -3.3,0.4 1,-4.8 4.2,-2.6 -2.8,-2.1 -1.7,-2.4 1.8,-0.7 -2,-3.9 -4.5,-0.5 0.9,-2.4 1.1,-9 6.2,-0.7 0.9,-0.4 0.5,-0.9 h 1.3 l 0.8,0.5 -3,2.8 6.3,4.7 -1.6,1.9 1.7,0.9 z"
   id="yeosu"
   inkscape:label="여수" /><path
   id="suncheon"
   class="st0"
   d="m 209.68356,539.46667 v 6.80078 l -11.40039,11.90039 -7.70117,-2 -8.19922,-7.80078 -3,24.09961 1.80078,1.5 1.19922,-3.09961 2.90039,5 0.79883,9.40039 10.20117,-1.19922 4,5.5 h 3.79883 l 1.70117,3.89844 4.69922,1.60156 3,-3.5 -0.0996,2.89844 5.90039,-0.59961 -0.59961,-6.59961 5.59961,-1.19922 -0.30078,7.29883 h 1.40039 l 0.80078,-6.09961 5.19921,-5.59961 -4,-6.5 2.59961,-6.5 -5.09961,-9.09961 0.90039,-7.10156 z"
   sodipodi:nodetypes="ccccccccccccccccccccccccccccc"
   inkscape:label="순천"
   style="fill:#b8b8b8;fill-opacity:1;stroke:#000000;stroke-opacity:1" /><path
   id="gwangyang"
   class="st0"
   d="M247,579.5l-0.6,2l-3.1-1.9l-2.7,6.3l0.9-2.7l-4.4,0.4l-3-8.2l-2.7,6.2l-4-6.5l2.6-6.5   l-5.1-9.1l0.9-7.1l3.2,1.5l5.8-3.6l2.6-10l18.5,20.6l2.4,6.3l-4.1,7.4l-0.1,0.1l-3.4-2.2l0.5,3.3L247,579.5z"
   style="enable-background:new 0 0 509 716.1;stroke:#000000;stroke-opacity:1"
   inkscape:label="광양" /><path
   id="gurye"
   style="fill:#b8b8b8;stroke:#000000;stroke-width:0.5;stroke-opacity:1"
   class="st0"
   inkscape:label="구례"
   d="m 206.4,521.5 6.7,-9.4 4.4,-0.4 13.6,8.8 6.1,19.8 -2.6,10 -5.8,3.6 -3.1,-1.5 -16.1,-13 -4.2,-0.8 -1.3,-5 4.6,-2.5 z" /><path
   id="gokseong"
   style="fill:#b8b8b8;stroke:#000000;stroke-width:0.5;stroke-opacity:1"
   class="st0"
   inkscape:label="곡성"
   d="m 181.1,516.2 2.2,3.2 2.3,-3 4.5,3.5 12.4,-1.5 3.9,3.1 2.3,9.6 -4.6,2.5 1.3,5 4.2,0.8 v 6.7 l -11.4,11.8 -7.7,-1.9 -8.1,-7.8 -1.5,-12.9 -8.7,2.9 -4.7,-8.2 2,-8.5 0.3,0.1 v 0 z" /><path
   id="boseong"
   class="st0"
   d="M179.4,572.2l1.8,1.5l1.2-3.1l2.9,5l0.8,9.4l10.2-1.2l4,5.5l3.8,0l1.7,3.9l4.6,1.5l-9.2-1.1   l10.7,4.1l-0.2,0.3l-3.8,3.5l-7.3-6l-11.9,5.9l-3.2,5.9l-3.2,6.4l-0.1,0.8l-4.7,2.1l-4.3-2.4l-2.4,4.4l-1.8,1.7l-1.2,0.6l-4.4,3.5   l-0.9,1.1l-3.2-7.1l-5.4-0.4l-0.9-3.8l5.6-4.6l0.9-13.3l2.1-2.5l6.8-5.4l0.1-9.9L179.4,572.2z"
   style="enable-background:new 0 0 509 716.1;stroke:#000000;stroke-opacity:1"
   inkscape:label="보성" /><path
   style="enable-background:new 0 0 509 716.1;stroke:#000000;stroke-opacity:1;fill:#b8b8b8;fill-opacity:1;stroke-width:0.5;stroke-dasharray:none"
   d="m 186.3,606.6 2.4,-5 11.9,-5.9 7.2,8.6 -2.3,7.1 8.2,10 6.4,2.7 -4.1,0.7 4.8,1.5 1.2,4.3 -2.4,4.7 -3.9,-3.6 -1.5,3.2 -6.6,-1.6 1.1,2.8 3.3,0.5 -4.3,1 5.4,1.4 -0.2,2 -0.6,2.7 v 0.2 l -0.2,1 -2.1,-1.4 -1.4,2.6 -3.2,0.1 1.7,2.5 -4.3,-0.6 -1.3,2.3 -1,-1.9 -3.2,4 1.5,3.5 -7.7,-6.3 2,-3.1 -1.1,0.2 -10.3,-5 -3,2 -0.2,0.1 -2.4,-0.4 -3.7,-1 -0.6,-5.9 0.7,-0.8 2.8,-4 0.4,-0.6 2.9,0.9 0.2,-5 v 0 l 2.1,-2.6 5,-1.7 0.6,-4.1 6.2,-5.8 0.2,9.4 8,-8.2 -2.3,-6.6 -8.1,3.3 z"
   id="goheung"
   inkscape:label="고흥" /><path
   id="jangheung"
   class="st0"
   d="M138.5,589.1l5.3-0.6l0.9,4.2l4.5,3.5l3.7-4.2l3,2.4l5.8-0.4l-2.1,2.5l-0.9,13.3l-5.6,4.6   l0.9,3.8l5.4,0.4l3.2,7.1l-12.2,0.7l6.6,4.2l-3.1,4.6l3.6,0.7l-0.3,2.1l-2-0.9l0,3.3l-4,1.5l2.6,9.3l-4.8-1.9l0.9,4.3l-10-0.1   l1.5,5.2l-4.6-4l-0.9-9.8l6-5.2l-4.7-11.6l3.9-1.2l-8-23.6l-2.8-0.8l1.5-7.5L138.5,589.1z"
   style="enable-background:new 0 0 509 716.1;stroke:#000000;stroke-opacity:1"
   inkscape:label="장흥" /><path
   id="gangjin"
   class="st0"
   d="M132.9,655l-4.3-3.4l2.3-13.5l-1.4,1.1l-1.1-13.7l-2.3,21.2l-3.6,2.1l2,2.3l-2.6,2.5l-6.6-2.5   l0.4-8.4l-2.5-2.1l3.6-3.9l-1.9-5.8l2.7-4.6l-2.3-0.4l3-7.7l-4.6-1.5l1.5-3.4l-3.2-2.9l3.1-3.5l8.1-0.4l3.4-4.4l3.3,0.6l2.8,0.8   l8,23.6l-3.9,1.2l4.7,11.6l-6,5.2l0.4,9.6l0,0.1L132.9,655z"
   style="enable-background:new 0 0 509 716.1;stroke:#000000;stroke-opacity:1"
   inkscape:label="강진" /><path
   id="yeongam"
   class="st0"
   d="M85.2,600.7l1.7-0.3l6.7,3.6l5.4-12.3l0.1-0.8l0.6-2.3l6.3-9.5l3.9,6.5l5.1,1.1l-0.6-9.9   l3.6,0.7l2.8,7.6l13.4,3.6l4.4,0.4l-6.6,6.1l-1.5,7.5l-3.3-0.6l-3.4,4.4l-8.1,0.4l-3.1,3.5l3.2,2.9l0,0l-1.5,3.4l-14.6,3.9l0.9-2.6   l-2.6,1.3l-1,0.6l-0.7,0.2l-3-3l-0.4-3.9l-4.6-0.8l0,0l1.4-3.5l-6.7,0.4l-1.2-0.9l-1.6,0.5l-2.5,2l-3.1-2.4l2.3-4.3l8-1.6   L85.2,600.7z"
   style="enable-background:new 0 0 509 716.1;stroke:#000000;stroke-opacity:1"
   inkscape:label="영암" /><path
   id="haenam"
   class="st0"
   d="M107,668.1l-2,6.9l-6-0.7l-1.8,2.9l-2.2,1.5l-1.4-0.3l-0.1-2.1l0.6-8.2l-6,2l-1.1-2.2l0-0.1   l2.8,0.1l-2-3.4l0.1-0.1l3.3-0.1l-1.3-3.6l3.9-0.9l-1.2-4.1l-4,1.9l-2.8-3.2l3-0.2l-2.2-6.3l1.5-2.6l-3.7-2.6l2.3-1.4l-5.8-4.2   l-3.7,4l-0.4-4.6l-9-0.9l0,0l-1.2-1.9l-3.1-2.6l1.9-5.4l-4.9-5.5l4.1-14.4l4.4,1.4l4.5,8.8l4.2-5.1l4.6,1.1l5.5,1.7L92,617l5.7,4.7   l0.8-1l1-0.2l14.6-3.9l4.6,1.5l-3,7.7l2.3,0.4l-2.7,4.6l1.9,5.8l-3.6,3.9l2.5,2.1l-0.4,8.4l6.6,2.5l0,0.1l-0.8,1.3l-5.5,2.5   l-0.8,0.6l0,0l-4.3,2l-0.2,0.8l0,0l-2.5,0.8l-0.7,5.2L107,668.1z"
   style="enable-background:new 0 0 509 716.1;stroke:#000000;stroke-opacity:1"
   inkscape:label="해남" /><path
   style="enable-background:new 0 0 509 716.1;stroke:#000000;stroke-opacity:1;fill:#b8b8b8;fill-opacity:1;stroke-width:0.5;stroke-dasharray:none"
   d="m 55.4,640.8 5.7,-8.1 4.9,2 1.2,1.4 0.1,2 4,0.2 5.2,9 0.3,1.8 h -3.6 l 1.9,1.5 -0.8,4.1 -0.3,0.4 -2.1,3 -0.8,1.1 -0.7,2 -2.4,-3.4 -1.6,3.4 -5.6,1 0.7,2.4 -18,2.9 1.9,-3.6 -3.9,-0.4 -3.2,-5.3 5.3,-3.7 -1.7,-2.7 7.3,-3.8 0.9,-2.8 1.3,-1.6 0.2,-0.2 -0.4,2.8 1.3,-2.1 3.3,-1 z"
   id="jindo"
   inkscape:label="진도" /><path
   id="muan"
   class="st0"
   d="m 86.8,600.4 -0.4,-3.4 -6.4,-5.4 -0.4,-5 -3.3,-18.5 -0.9,12.3 -3.2,0.9 -1.9,-0.4 -2.4,-1.7 -0.5,-0.2 -0.2,-0.9 2.2,-1.5 -3.3,-3.4 0.3,-1.8 2,-1.9 -0.4,2.1 4.3,0.5 2,-3.2 -3.2,-0.3 7.4,-5.8 -1.2,-2.8 -3.7,1.6 -6.1,-1 -5.5,-1.4 v -0.5 l -0.2,-1.5 -1.5,-4.8 3,-8.2 6.4,3.6 3.2,-5 0.2,0.3 0.4,9 0.2,0.1 -1,3.8 7.5,0.8 -0.1,6.9 3.1,-0.1 3.9,-7.2 2.9,1.6 -1.8,6.2 9.5,7.9 v 8.8 h -3.5 l 4.2,5.2 1.2,2.5 0.1,0.1 h 0.1 l -0.6,2.3 -5.5,13.1 z"
   sodipodi:nodetypes="ccccccccccccccccccccccccccccccccccccccccccccccccccccc"
   inkscape:label="무안"
   style="stroke:#000000;stroke-opacity:1" /><path
   id="naju"
   style="fill:#b8b8b8;stroke:#000000;stroke-width:0.5;stroke-opacity:1"
   class="st0"
   inkscape:label="나주"
   d="m 112.7,550.4 9.9,0.4 4.9,6.7 -1.9,1.9 7.9,0.9 9.6,-3.9 -3.2,10.6 3.4,2.7 -3.7,8.3 1.3,6.4 -5.9,3.4 v 0.1 l -0.9,0.8 -13.4,-3.6 -2.8,-7.6 -3.6,-0.6 0.7,9.9 -5.1,-1.1 -4,-6.5 -6.3,9.5 -0.1,-0.1 -1.1,-2.5 -4.2,-5.2 h 3.6 v -8.8 l 2.1,-2.1 2.7,2.2 1.9,-3.4 0.4,-15.9 3.6,1.8 z" /><path
   id="hampyeong"
   class="st0"
   d="M76.2,542.4l4.9-3.5l3.5,2.2l5.4-3.2l10.8,1l4-6.8l7.8,6.3l0,0l2.4,3.2l-3.5,4l1.3,5l0,0   l-4.1,4.3l-3.6-1.8l-0.5,15.9l-1.9,3.4l-2.7-2.2l-2.1,2.1l-9.5-7.9L90,558l-2.8-1.5l-2.8-1.8l3.2-2.6l-5-0.8l-6-8L76.2,542.4z"
   style="enable-background:new 0 0 509 716.1;stroke:#000000;stroke-opacity:1"
   inkscape:label="함평" /><path
   id="yeonggwang"
   class="st0"
   d="M73.4,529.2l-2.8,0l3-3.7l-1.8-1.9l6-2.1l5.8-20.7l6.6,0.1l1.9,2.6l-1.8,4.2l6.9,12.5l6.8,0.8   l-0.1-4.4l7.7,1.7l-4.3,3l-2.6,10.7l-4,6.8l-10.8-1l-5.4,3.2l-3.5-2.2l-4.9,3.5l-2.1-3.2l2.2-0.1l0.8-4.2l-5.1,3l0.7-3.3l-5.4,0.5   l1-6l2,2l1.2-2.6L73.4,529.2z"
   style="enable-background:new 0 0 509 716.1;stroke:#000000;stroke-opacity:1"
   inkscape:label="영광" /><path
   id="hwasun"
   style="fill:#b8b8b8;stroke:#000000;stroke-width:0.5"
   class="st0"
   inkscape:label="화순"
   d="m 172.2,538.2 8.7,-2.9 1.5,12.9 -3,24 -10.9,6.5 -0.2,9.8 -6.7,5.5 -5.8,0.4 -3,-2.4 -3.7,4.2 -4.4,-3.6 -0.9,-4.1 -5.3,0.6 -4.4,-0.4 0.9,-0.8 v -0.1 l 5.9,-3.4 -1.3,-6.4 3.7,-8.3 -3.4,-2.7 3.2,-10.6 v 0 l 3.5,-2.1 4.1,2.9 6.8,-7.5 0.6,-2 9.2,2.3 -2.1,-9.6 z" /><path
   id="gwangju"
   class="st0"
   d="M 126.30078 528 L 120.5 535.30078 L 112.5 538.30078 L 114.90039 541.40039 L 111.40039 545.40039 L 112.69922 550.40039 L 122.59961 550.80078 L 127.5 557.5 L 125.59961 559.40039 L 133.5 560.30078 L 143.09961 556.40039 L 146.59961 554.30078 L 150.69922 557.19922 L 157.5 549.69922 L 158.09961 547.69922 L 159.80078 541.59961 L 153 540.40039 L 146.09961 528.19922 L 141.59961 529.19922 L 135.90039 532.80078 L 125.69922 531.90039 L 126.30078 528 z "
   style="enable-background:new 0 0 509 716.1;stroke:#000000;stroke-opacity:1"
   inkscape:label="광주" /><path
   id="jangseong"
   style="fill:#b8b8b8;stroke:#000000;stroke-width:0.5;stroke-opacity:1"
   class="st0"
   inkscape:label="장성"
   d="m 104.7,532 2.6,-10.7 4.3,-3 -0.1,-1.1 0.9,-0.2 0.2,0.1 1.8,-3.7 2.5,1.2 5.9,-5.1 -1.1,-3.6 4,-2.6 -1.7,-4.6 v -1 l 4.2,-2.4 v 0 l 6.5,-2.9 5.8,4 6.4,9.4 0.6,3.4 -8.2,9.2 2.3,10.8 -5.7,3.6 -10.2,-0.9 0.6,-3.9 -5.8,7.3 -8,3 z" /><path
   id="damyang"
   style="fill:#b8b8b8;stroke:#000000;stroke-width:0.5;stroke-opacity:1"
   class="st0"
   inkscape:label="담양"
   d="m 141.6,529.2 -2.3,-10.8 8.2,-9.2 -0.6,-3.4 7.2,0.3 3.1,-9.8 4.5,-0.6 2.2,6.3 -3.2,5 5.5,4.6 -3.6,6.8 5.5,2.2 1.4,0.9 -2,8.5 4.7,8.2 -7,2.2 2.1,9.6 -9.2,-2.3 1.7,-6.1 -6.8,-1.2 -6.9,-12.2 z" /><path
   style="enable-background:new 0 0 509 716.1;stroke:#000000;stroke-opacity:1;fill:#b8b8b8;fill-opacity:1;stroke-width:0.5;stroke-dasharray:none"
   d="m 111.5,673.4 v 0 0 0 l -1.6,-2.1 v -3.2 l -0.1,-1.8 -0.1,-0.3 v -0.9 l 0.5,-0.9 0.5,-1.1 4.1,-1 0.4,-0.2 5.8,2.9 0.8,2.5 4.9,8.6 -1.4,1.9 2.1,2 -5.6,-2.7 -0.2,2.8 -4.9,-0.9 z"
   id="wando"
   inkscape:label="완도" /><path
   style="enable-background:new 0 0 509 716.1;fill:#b8b8b8;fill-opacity:1;stroke:#000000;stroke-opacity:1;stroke-width:0.5;stroke-dasharray:none"
   d="m 52.546447,550.27678 7.4,2.5 1.5,4.8 0.2,1.5 v 0.5 l 1.6,3 -1.1,1.8 -0.4,0.5 -1,1.1 -2.8,-0.7 -0.8,-0.4 0.7,-5.2 -3.5,2.1 -0.4,-3.5 -5.1,-0.9 -0.1,-1.4 -0.3,-3.6 z"
   id="sinan"
   inkscape:label="신안" /><path
   id="gochang"
   class="st0"
   d="M110.5,478.5l1.1,0.5l3.9,3.3l0.9,4l-0.8-7l5.7-0.5l6.5,2l0.3,14.5l-4.2,2.4l0,1l1.7,4.6   l-4.1,2.6l1.1,3.6l-5.9,5.1l-2.5-1.2l-2.1,3.8l-0.8,0l0.1,1.2l-3.3-0.8l0,0l-4.4-0.8l0.1,4.4l-6.8-0.8l-6.9-12.5l2-3.3l-1.7-3   l-6.4-1.5l7.2-13.2l1.6,1.8l6.7-4.3l2.3-0.8l2.6,0.2l1.4,5.3l2.5-9.6L110.5,478.5z"
   style="enable-background:new 0 0 509 716.1;stroke:#000000;stroke-opacity:1"
   inkscape:label="고창" /><path
   id="buan"
   class="st0"
   d="M89.2,474.5l0-0.6l0.1,0.1l0,0L89.2,474.5z M89.4,473.7l-1.2-5.2l9.8-8.2l4.4,0.9l8.1-17.9   l9.6,0.6l-1.1-2.6l8.2,2.6l2.5,7.1l0,0l3.7,5.4l1.9,0.3l0.1,4.7l-8.2,2.4l-4.9,3.2l-1.2,11.7l-5.7,0.5l-3.5-1.9l-0.9-0.3l-3.1-1.1   l0.4,0.5l0,0l-10,0.4l-2.5,0.5l-0.1,0.1l-6.4-3l-0.2-0.5L89.4,473.7z"
   style="enable-background:new 0 0 509 716.1;stroke:#000000;stroke-opacity:1"
   inkscape:label="부안" /><path
   id="jeongeup"
   style="fill:#b8b8b8;stroke:#000000;stroke-width:0.5;stroke-opacity:1"
   class="st0"
   d="m 135.4,456.8 5.9,-2.7 0.3,-4.2 13,6.7 6.7,7.9 4.2,-1.7 3.7,8.7 1.2,4.9 v 0 l -2.4,0.9 v 0 l 0.1,5.4 4.1,2.8 -0.2,0.3 -2.7,1.8 2,1.2 v 0 l 0.1,0.3 -7.2,-0.1 -10.1,-7.3 -5.6,4.9 0.5,6.7 -9.4,0.1 0.9,3 -5.8,-4 -6.5,2.9 -0.4,-14.5 -6.5,-2 1.2,-11.7 4.9,-3.2 8.2,-2.4 z"
   inkscape:label="정읍" /><path
   id="sunchang"
   style="fill:#b8b8b8;stroke:#000000;stroke-width:0.5;stroke-opacity:1"
   class="st0"
   inkscape:label="순창"
   d="m 140.5,496.3 -0.9,-2.9 9.4,-0.1 -0.5,-6.7 5.6,-4.9 10.1,7.3 7.1,0.1 2.5,0.9 v 0 l 3.4,6.7 4.9,-4 0.1,-0.1 0.1,-0.3 v 0 l 1.5,-0.1 v 0 l 2.9,2.4 v 0 l 10,-0.5 v 0 l 0.2,0.5 v 0 l -2.1,7 v 0 l -0.8,0.8 v 0 l -7.9,4 -5,9.8 -11.3,5.4 v 0 l -0.3,-0.1 v 0 l -1.4,-0.9 v 0 l -5.5,-2.2 3.6,-6.8 -5.5,-4.6 3.2,-5 -2.2,-6.3 -4.5,0.6 -3.1,9.8 -7.2,-0.3 -6.4,-9.4 z" /><path
   id="imsil"
   style="fill:#b8b8b8;stroke:#000000;stroke-width:0.5;stroke-opacity:1"
   class="st0"
   inkscape:label="임실"
   d="m 173.9,469.1 -0.1,-3.8 0.3,-1.2 1.1,-7.8 v 0 l 5,-2.9 4.1,4.3 4.8,3.2 1,-6.6 -1.2,-4.1 v -0.1 l 1.7,-1.4 0.5,-1 v 0 l 1,-0.5 2.5,10.1 -0.4,4 7.6,3.4 10.3,3.7 0.9,3.2 -1.5,1 h -0.1 l -1.1,0.2 -4.4,0.1 -2.3,7.9 0.2,0.7 -0.1,0.1 -3.7,0.9 0.5,3.8 2.3,4.3 v 0 l -0.4,0.4 v 0 l -1.3,0.2 v 0 l -4.5,1.6 0.1,1.3 -10,0.5 -2.9,-2.4 -1.5,0.1 -0.1,0.3 -0.1,0.1 -4.9,4 -3.4,-6.7 -2.5,-0.9 -0.1,-0.3 -1.9,-1.2 2.9,-2.1 -4.1,-2.8 -0.2,-5.4 2.5,-0.9 -1.1,-4.9 1.6,0.3 z" /><path
   id="gimje"
   class="st0"
   d="M123.3,431.5l7.6-0.2l0-2.8l7.8-3.3l7.4,2.2l5.9-2.1l5.3,5.1l1.1,2.8l-0.9,8.3l8.3,3.5   l-1.9,5.5l4.4,4.2l-2.8,8l-4.2,1.7l-6.7-7.9l-13-6.7l-0.3,4.2l-5.9,2.7l-1.9-0.3l-3.7-5.5l-2.5-7l-8.2-2.6l-2.7-8.9l1.1-0.1   l3.8-0.5l1.9-0.3L123.3,431.5z"
   style="enable-background:new 0 0 509 716.1;stroke:#000000;stroke-opacity:1"
   inkscape:label="김제" /><path
   id="gunsan"
   class="st0"
   d="M97.4,421.4l-1.6-5.6l23.2-1.9l0.2-0.2l2.1-0.2l4.1,0.7l0.3-6.1l14.9-5.4l6.3,9.5l-8.2,13   l-7.8,3.3l0,2.8l-8,0.3l-1.4,0.2l-0.2,0l-3.5,0.5l-0.3,0l-1.1,0.1l-0.2-3l-5.4,0.4l-2.4,0l0.5-8.8L97.4,421.4z"
   style="enable-background:new 0 0 509 716.1;stroke:#000000;stroke-opacity:1"
   inkscape:label="군산" /><path
   id="iksan"
   style="fill:#b8b8b8;stroke:#000000;stroke-width:0.5;stroke-opacity:1"
   class="st0"
   d="m 141.4,401 1.4,-8.9 9.5,-4.3 6.3,1 4.9,0.7 2,8.9 8.9,3.7 -5,21 -6.6,0.8 -0.3,4.4 -5.2,2.1 -5.3,-5.1 -5.9,2.1 -7.4,-2.2 8.2,-13.1 -6.3,-9.4 z"
   inkscape:label="익산" /><path
   id="jeonju"
   class="st0"
   d="M 175 427.69922 L 162.59961 428.30078 L 157.30078 430.40039 L 158.40039 433.19922 L 166.09961 439.69922 L 165.80078 445 L 163.90039 450.5 L 168.30078 454.80078 L 178.09961 446.19922 L 182.80078 447.59961 L 185.09961 443.40039 L 187.30078 440.19922 L 182.59961 434.19922 L 179 435.30078 L 175 427.69922 z "
   style="enable-background:new 0 0 509 716.1;stroke:#000000;stroke-opacity:1"
   inkscape:label="전주" /><path
   id="namwon"
   style="fill:#b8b8b8;stroke:#000000;stroke-width:0.5;stroke-opacity:1"
   class="st0"
   inkscape:label="남원"
   d="m 208.3,483.3 1.5,-2.2 9.9,3.8 5,6.4 -1.7,2.5 3.9,1.8 2.3,-2.4 0.8,-7.8 2,-3.2 5.6,2.8 3.2,7.7 -2.1,4.3 4.8,2.1 -8.2,12.5 1.4,5.2 -5.6,3.7 -13.6,-8.8 -4.4,0.4 -6.7,9.4 -3.9,-3.1 -12.4,1.5 -4.5,-3.5 -2.3,3 -2.2,-3.2 5,-9.8 7.9,-4 0.8,-0.8 2.1,-7 -0.2,-0.5 -0.1,-1.3 v 0 l 4.5,-1.6 1.3,-0.2 0.4,-0.4 -2.3,-4.3 v 0 l -0.5,-3.8 3.7,-0.9 v 0 l 0.1,-0.1 z" /><path
   id="wanju"
   class="st0"
   d="M158.4,433.2l7.8,6.5l-0.3,5.3l-8.3-3.5L158.4,433.2z M198.7,392l3.9,2.7l2.9,14.2l-2,1.8   l-2.3,5.3l1.4,10.1l-2.8,0.8l-3.7,16.8l-4,3.6l0,0l-1,0.5l-0.5,1l0,0l-1.7,1.5l1.2,4.1l0,0l-1,6.6l0,0l-4.8-3.2l-0.1,0l-4.1-4.3   l-5,2.9l-1.1,7.8l0,0.1l-0.4,1.1l0,0.1l0.1,3.7l0,0l-3,2.7l0,0l-1.6-0.4l0,0l-3.7-8.7l2.8-8l9.8-8.6l4.8,1.4l2.3-4.2l2.2-3.2   l-4.8-6l-3.6,1l-4-7.6l-12.5,0.6l0,0l0.3-4.3l6.6-0.9l5-21l1.1-3.5l8.4-2l5.4,2.8l0.4-4.7L198.7,392z"
   style="enable-background:new 0 0 509 716.1;stroke:#000000;stroke-opacity:1"
   inkscape:label="완주" /><path
   id="jangsu"
   style="fill:#b8b8b8;stroke:#000000;stroke-width:0.5;stroke-opacity:1"
   class="st0"
   inkscape:label="장수"
   d="m 236.5,437.6 1.3,4.1 5.7,0.4 v 0 l 3.1,3.4 -2.5,3.1 -7.6,19.2 2,4.3 -6.5,10.1 -2,3.2 -0.8,7.8 v 0 l -2.3,2.4 v 0 l -3.9,-1.8 1.7,-2.5 -5,-6.4 -9.9,-3.8 -1.5,2.2 v 0 l -4.5,-1.8 v 0 l -0.2,-0.7 v 0 l 2.3,-7.9 4.3,-0.1 h 0.1 l 1.1,-0.2 1.6,-1 0.1,-0.1 4.1,0.2 1.2,-13.5 v 0 l 5.7,-7.3 -0.2,-9.1 7.3,2.9 z" /><path
   id="jinan"
   style="fill:#b8b8b8;stroke:#000000;stroke-width:0.5;stroke-opacity:1"
   class="st0"
   inkscape:label="진안"
   d="m 205.5,408.9 3.1,2.2 4.3,-3.3 2.6,7 h 8.8 l 7.3,12.4 -0.9,4.2 3.6,-0.2 2.2,6.4 -5.3,7.1 -7.3,-2.9 0.2,9.1 -5.7,7.3 -1.2,13.5 -4.1,-0.2 -1.1,-3.1 -10.2,-3.7 v 0 l -7.6,-3.3 v -0.1 l 0.4,-4 v 0 l -2.5,-10.1 4,-3.6 3.7,-16.8 2.8,-0.8 -1.5,-10 2.4,-5.3 z" /><path
   id="muju"
   style="fill:#b8b8b8;stroke:#000000;stroke-width:0.5;stroke-opacity:1"
   class="st0"
   inkscape:label="무주"
   d="m 238.7,401.7 2.9,4.8 3.6,-3.9 1.6,4.3 7.6,1.6 11.1,-2.3 3.6,2.6 4.4,11.5 -3.3,6.2 -3.3,0.5 -2.2,6.3 -12.4,3.4 -5.7,8.8 -3.1,-3.4 -5.7,-0.4 -1.3,-4.1 -2.2,-6.4 -3.6,0.2 0.9,-4.2 -7.3,-12.4 0.9,-8.7 10.4,6.3 -0.3,-3.9 3.6,-1.1 -2.6,-1.1 z" /><path
   id="uljin"
   class="st0"
   d="M446.4,234.5l8.1-3.5l1.2,7.2l7.4,6.3l-2.5,4.6l1.1,21.6l7.9,24.1l-0.3,7.7l-5.8,6.8l-5.1-3.9   l-3.6,2.9l-10.8-3.4l3.1-7.1l-3-4l5.2-5.7l-5.4-8.1l1.5-5l-2.8-1.9l-2.8,4l-4.4-0.5l-1.9-3.7l-4.5,0.4l0,0l-2.4-7.6l-7.3-5.2   l1.5-3.1l1.7-7l6.7,0.7l3.1-3.5l6.6,0.4l-1.7-5.5L446.4,234.5z"
   style="enable-background:new 0 0 509 716.1;stroke:#000000;stroke-opacity:1"
   inkscape:label="울진" /><path
   id="bonghwa"
   style="fill:#b8b8b8;stroke:#000000;stroke-width:0.5;stroke-opacity:1"
   class="st0"
   inkscape:label="봉화"
   d="m 376.5,280.5 -1.2,-4.5 -6.5,3.8 -4.1,-2.2 -0.6,-5.1 4.1,-4.6 1.4,-5.8 1.3,-2.9 0.2,-4.7 1.3,-4.8 6,1 3.2,-10.2 11.7,7.5 0.7,-1.5 2.3,1.3 3,-7.4 3,-0.4 5.4,1.4 9,2.9 4.4,-5.6 11.4,9 -3.1,3.5 -6.8,-0.7 -1.7,7 -1.8,3.9 7.6,4.4 2.5,7.6 -6.9,7.9 -14.3,8.9 0.8,3.9 -4.9,-3.7 -7.8,0.1 -6.3,-5.7 -3.6,2.1 -0.8,-2.8 -0.8,-1.4 -3.9,2.5 -2.5,-0.3 -0.6,1.8 v 0 l -1.9,1.2 -2,-5 z" /><path
   id="yecheon"
   style="fill:#b8b8b8;stroke:#000000;stroke-width:0.5;stroke-opacity:1"
   class="st0"
   inkscape:label="예천"
   d="m 340.5,279.2 4.1,2.1 -0.7,9.1 9.6,1.1 5.1,10.6 1.8,7.5 -10,3.9 0.6,4.2 -4,-0.2 -0.5,5.1 -8.1,7.9 -6.7,2.8 -1.3,-4.2 -3,0.8 -3.4,11 -6.6,-3.4 0.7,-9.2 3.5,-6.7 -4.5,-5.1 5.8,-4.3 0.2,-2.8 2.8,2.2 2.5,-1.6 -3.9,-4.1 1.5,-8.9 4.6,-2.5 -0.2,-8 v 0 l 6.6,-1.6 z" /><path
   id="chilgok"
   style="fill:#b8b8b8;stroke:#000000;stroke-width:0.5;stroke-opacity:1"
   class="st0"
   inkscape:label="칠곡"
   d="m 321.7,398.3 4.9,-0.6 3.9,4.8 5.5,-5 8.3,3 2.7,-8.4 9.1,2.3 0.9,8.2 7.8,-3 -1.2,8.1 2.5,2.3 -4.7,3.5 -5.4,2.4 -4.1,-1.1 0.7,7.5 v 0.1 l -0.4,0.6 v 0 l -0.1,0.7 H 352 l -0.7,1.1 h -0.1 l -2.2,4 -4.4,-1 0.8,-5.7 -2.9,-1.3 -6.9,6.8 -0.5,-6.5 -6.1,-2 -7.5,-13.9 z" /><path
   id="seongju"
   style="fill:#b8b8b8;stroke:#000000;stroke-width:0.5;stroke-opacity:1"
   class="st0"
   inkscape:label="성주"
   d="m 294.7,437.3 1.2,-5.1 -4.9,-10 5,2.4 0.9,-5.3 7.1,-1.9 2.2,-10.8 6.8,-3.1 8.5,1.7 7.5,13.9 6.1,2 0.5,6.5 -1.5,7.6 -2.5,9 -11.2,-5.1 -3.5,7.4 -5.3,-5.6 h -5.1 l -0.7,6.1 -9.4,-8.3 z" /><path
   id="goryeong"
   style="fill:#b8b8b8;stroke:#000000;stroke-width:0.5;stroke-opacity:1"
   class="st0"
   inkscape:label="고령"
   d="m 334.1,435.2 10.9,2.7 v 0 l 1.4,2.8 -7.9,1 -4.7,7.8 6.3,8.5 -10.3,0.3 6.5,10.1 -3.8,4.4 -0.9,-0.4 -1.6,-4.8 -5.9,-1.7 -9.8,2.6 -8.7,-2.2 0.3,-3.1 5.2,-1.6 -5.3,-14.6 0.7,-6.1 h 5.1 l 5.3,5.6 3.5,-7.4 11.2,5.1 z" /><path
   id="yeongdeok"
   class="st0"
   d="M444.1,305l10.8,3.4l3.6-2.9l5.1,3.9l-1.7,7.6l5.8,13.3l-8.8,38l-9.1,0.2l-1-8.7l-5.8,0.5   l-13.1-27.7l9.1,1.6l0.2-3.9l2.7,0.5l-1.6-3.6l1.3-4.6l-3.8-4l1.8-11.3L444.1,305z"
   style="enable-background:new 0 0 509 716.1;stroke:#000000;stroke-opacity:1"
   inkscape:label="영덕" /><path
   id="yeongyang"
   style="fill:#b8b8b8;stroke:#000000;stroke-width:0.5;stroke-opacity:1"
   class="st0"
   inkscape:label="영양"
   d="m 408.8,294.1 -0.8,-3.9 14.3,-8.9 6.9,-7.9 4.5,-0.4 1.9,3.7 4.3,0.5 2.8,-4 2.9,1.9 -1.5,5 5.3,8.1 -5.2,5.7 3,4 -3.1,7.1 -4.6,2 -1.8,11.4 3.8,4 -1.2,4.6 1.6,3.6 -2.7,-0.5 -0.2,3.9 -9.2,-1.6 -2.9,-0.5 -0.3,-4.8 -7.6,-1.1 -2.8,-5.8 -5.9,-2.1 z" /><path
   id="cheongsong"
   style="fill:#b8b8b8;stroke:#000000;stroke-width:0.5;stroke-opacity:1"
   class="st0"
   inkscape:label="청송"
   d="m 410.3,318.1 5.9,2.1 2.8,5.8 7.6,1.1 0.3,4.8 2.9,0.5 13.1,27.8 -10,15.3 -4.9,-5.8 -9.3,-1.3 v 0.1 l -0.7,1.8 3.6,3.8 -11.5,10.6 -12,-0.6 -1.6,-3.9 -0.2,-8.5 -4.5,-1.3 5.3,-5.7 5.2,-1.4 6.5,-16 -2.2,-8.5 3.1,-8.5 -3,-2.2 z" /><path
   id="uiseong"
   class="st0"
   d="M324,340.9l3.5-11.1l3-0.8l1.3,4.2l6.7-2.8l3.2,4.6l4.8-4.2l7.4,4.2l7,13.3l12.9-6.8l0.5-4.7   l4.7-1.9l10.6,5.6l2.6,10l3.6,2l1.6,12.2l-5.3,5.7l4.5,1.3l0.2,8.5l-5.9-2.5l-1.8-0.3l-3.3,4.2l-17.4-4.6l-2.6,2.2l-0.5-8.4   l-5.3-2.5l-5.3,0.6l-4.1-3.9l-8.8-4.2l-5.2,6.3l-6.2-8.2l-3.4-1.4l-2.9,3l-3-2.5l6.4-9.2L324,340.9z"
   style="enable-background:new 0 0 509 716.1;stroke:#000000;stroke-opacity:1"
   inkscape:label="의성" /><path
   id="gunwi"
   style="fill:#b8b8b8;stroke:#000000;stroke-width:0.5;stroke-opacity:1"
   class="st0"
   inkscape:label="군위"
   d="m 336.5,367 5.1,-6.3 8.8,4.1 v 0 l 4.1,4 5.3,-0.6 5.3,2.5 0.5,8.5 2.6,-2.2 17.3,4.5 3.3,-4.1 v 0 l 1.9,0.2 v 0 l 5.8,2.6 1.6,3.9 -0.9,4.8 v 0 l -3.7,-0.3 -7,9.3 -7.3,-3.6 -6,11.6 v 0 l -0.1,3.1 v 0 l -2.7,0.5 h -0.1 l -4.2,0.5 -2.5,-2.3 1.2,-8.1 -7.8,3 -0.9,-8.2 v -0.1 l -3,-7.7 2.1,-2.6 -4.4,-3.7 -2.5,2.6 -2.3,-7.6 -5.6,2.4 -3,-4.2 v 0 z" /><path
   id="mungyeong"
   style="fill:#b8b8b8;stroke:#000000;stroke-width:0.5;stroke-opacity:1"
   class="st0"
   inkscape:label="문경"
   d="m 314.4,275.7 16,10.8 0.2,8 -4.6,2.5 -1.5,8.9 3.9,4.1 -2.5,1.6 -2.8,-2.2 -0.2,2.8 -5.8,4.3 4.5,5.1 -3.5,6.7 -5.7,0.2 -0.5,-6.3 -12.6,-7.3 -6,2.7 -2.2,9.2 -9.5,0.5 -0.2,4.8 -5.7,-3 -1,-10.9 1,-9.8 -7.4,-2.7 2.5,-2 4.4,0.6 3.9,-7.4 0.1,0.1 13.8,4.6 -4.8,-6.2 3.3,-10.8 4.3,3 5,-5.6 8.6,2.8 v 0 l 1.9,0.3 -0.7,-5.4 3.2,0.2 z" /><path
   id="sangju"
   class="st0"
   d="M258.8,318.2l7.5-1.8l-1.5-3.2l4.1-3.6l5.6,8.5l1,10.9l5.7,3l0.2-4.7l9.5-0.5l2.1-9.3l6.1-2.6   l12.6,7.2l0.4,6.3l5.8-0.2l-0.7,9.2l6.5,3.4l3.3,7.7l-6.4,9.2l-4.4-2l-3,8.8l-9.4,1.3l-2.2,6l-7.5,2.5l-4-1.7l-4.5-3.1l-6.3,3.1   l-7.1-7.6l-2.7,4.3l-3.8,0l-0.9-6.7l5.8-6.3l-1.4-2.3l-0.6-17.9l3.4-6.6L258.8,318.2z"
   style="enable-background:new 0 0 509 716.1;stroke:#000000;stroke-opacity:1"
   inkscape:label="상주" /><path
   id="yeongju"
   style="fill:#b8b8b8;stroke:#000000;stroke-width:0.5;stroke-opacity:1"
   class="st0"
   inkscape:label="영주"
   d="m 365.6,245 7.2,3.9 -0.4,0.8 -1.3,4.8 v -0.1 l -0.2,4.8 v 0 l -1.3,2.9 v 0 l -1.4,5.8 v 0 l -4.1,4.6 0.6,5 4.1,2.3 6.5,-3.8 1.3,4.5 h -0.1 l -2.8,2.4 2,5 1.9,-1.2 -0.6,15.6 -17.3,-2.6 -1.1,2.4 -5.1,-10.6 -9.6,-1.1 0.7,-9.1 -4.1,-2.1 -3.2,-4.4 2.1,-8 14.1,-11.2 1.8,-5.7 4.8,-2.9 3.1,1.9 z" /><path
   id="gumi"
   style="fill:#b8b8b8;stroke:#000000;stroke-width:0.5;stroke-opacity:1"
   class="st0"
   inkscape:label="구미"
   d="m 301.9,372 2.2,-6 9.4,-1.3 3,-8.8 4.3,2 3.1,2.5 2.9,-3 3.4,1.4 6.3,8.2 0.9,6.5 3,4.2 5.6,-2.4 2.3,7.6 2.5,-2.6 4.4,3.7 -2.1,2.6 3,7.7 -9.1,-2.2 -2.7,8.4 -8.3,-3 -5.5,5 -3.9,-4.8 -4.9,0.6 -2.2,-2.6 2.6,-9.7 -3.1,-4.5 z" /><path
   id="andong"
   style="fill:#b8b8b8;stroke:#000000;stroke-width:0.5;stroke-opacity:1"
   class="st0"
   inkscape:label="안동"
   d="m 385.3,284.1 0.9,2.8 3.6,-2.2 v 0 l 6.3,5.7 1.3,-0.4 6.5,0.4 v 0 l 4.9,3.7 1.5,24 -3.6,10 3,2.2 -3.1,8.5 2.2,8.5 -6.5,16 -5.2,1.4 -1.6,-12.2 -3.6,-2 -2.6,-9.9 -10.6,-5.6 -4.6,1.9 -0.5,4.6 -12.9,6.8 -7,-13.2 -7.3,-4.2 -4.8,4.2 -3.2,-4.6 8.1,-7.9 0.5,-5.1 4,0.2 -0.6,-4.2 10,-3.9 -1.8,-7.5 1.1,-2.4 17.3,2.6 0.6,-15.7 0.6,-1.7 v 0 l 2.5,0.3 v 0 l 3.9,-2.4 v -0.1 l 0.8,1.4 z" /><path
   id="gimcheon"
   style="fill:#b8b8b8;stroke:#000000;stroke-width:0.5;stroke-opacity:1"
   class="st0"
   inkscape:label="김천"
   d="m 301.9,372 17.1,9.5 3.1,4.5 -2.6,9.7 2.2,2.6 -0.2,6.9 -8.5,-1.7 -6.8,3.1 -2.2,10.8 -7.1,1.9 -0.9,5.3 -5,-2.4 4.9,10 -1.2,5.1 -8.3,1.7 -3.9,-4.6 -7.1,0.5 -0.7,-5.9 -3.4,1.1 -1.1,-3.6 3.3,-6.2 -4.4,-11.5 10.6,-7.5 4.6,-13.3 -2.5,-6.7 10.1,-0.5 -3.3,-5.6 1.7,-2.4 4,1.7 z" /><path
   style="enable-background:new 0 0 509 716.1;stroke:#000000;stroke-opacity:1;fill:#b8b8b8;fill-opacity:1;stroke-width:0.5;stroke-dasharray:none"
   d="m 492.5,352.7 0.3,8.7 -5.4,5.2 -8.1,-3 -2.4,-7.5 13.9,-4.7 1.1,1.1 z"
   id="ulleung"
   inkscape:label="울릉" /><path
   id="cheonan"
   class="st0"
   d="M 173.5 260.59961 L 167.69922 265.5 L 170.19922 269.59961 L 172.59961 289.30078 L 168.19922 301.30078 L 159.40039 309.69922 L 168.40039 312 L 172.19922 309.30078 L 177.09961 315.5 L 178.59961 304.40039 L 174.30078 301.5 L 177.40039 298.40039 L 183.09961 298.5 L 189.19922 303.59961 L 194.19922 304.40039 L 198.30078 299.09961 L 203.30078 293.40039 L 209.09961 296 L 211.09961 294 L 208.80078 287.5 L 197 278 L 197.5 274.80078 L 194.90039 272.90039 L 194.5 272.69922 L 192.90039 269.59961 L 184.80078 266.90039 L 183.80078 263.59961 L 173.5 260.59961 z "
   style="enable-background:new 0 0 509 716.1;stroke:#000000;stroke-opacity:1"
   inkscape:label="천안" /><path
   id="gongju"
   style="fill:#b8b8b8;stroke:#000000;stroke-width:0.5;stroke-opacity:1"
   class="st0"
   inkscape:label="공주"
   d="m 154.1,306 1.3,4.1 4,-0.4 9,2.3 3.8,-2.7 4.9,6.2 7.2,6.5 -4.8,10.8 3.7,10.8 6.5,5.2 4,-1.2 -2.9,13.6 -6.6,-3.3 -1.4,2.2 -7,4.6 -4.4,-5.6 -5.2,9.9 -9.2,-3.5 -1.9,-5.6 6.5,-10.7 -6.8,-9.9 -7.4,1.7 -2.8,-3.7 0.8,-12.6 z" /><path
   d="m 96.2,363 -0.9,-2.9 1.4,-0.2 9.2,-2 -10.1,-6.7 -3.6,0.4 2.1,-6.4 4.6,-2.3 -4.2,1.2 -1.8,-12.8 2.7,-2.2 2.2,1 2.9,2.4 h 0.4 l 1,0.2 0.7,-0.4 4,0.3 1.1,4.3 0.2,0.6 1,-0.9 0.4,-0.6 7.2,3.7 6.6,13.6 -5.9,7.3 1.9,9.2 5,2 -5.4,10.3 -3.2,2.2 -11,-0.4 -6.4,-2.4 0.2,-7.3 2.3,-4.1 z"
   id="boryeong"
   style="enable-background:new 0 0 509 716.1;stroke:#000000;stroke-opacity:1;fill:#b8b8b8;fill-opacity:1;stroke-width:0.5;stroke-dasharray:none"
   inkscape:label="보령" /><path
   id="asan"
   style="fill:#b8b8b8;stroke:#000000;stroke-width:0.5;stroke-opacity:1"
   class="st0"
   inkscape:label="아산"
   d="m 152.9,268.2 14.8,-2.7 2.5,4.1 2.4,19.7 -4.4,12 -8.8,8.4 -4,0.4 -1.3,-4.1 -12.6,-7.9 -3.9,-8.9 3,-1.2 -2.5,-9.2 0.1,-0.6 0.5,-3.3 0.2,-1 2.5,0.6 0.6,-0.4 1.6,-0.6 3.5,-2.3 3.7,-2.4 z" /><path
   id="seosan"
   class="st0"
   d="M85.9,252.2l0.6,0.7l4.7,1.9l0,0.1l0.7,1.3l0.3,17.7l4.4,1.7l2.4,7l6.9-1.2l8.8,9.3l-0.1,3.8   l-2.5-1.2l-5.7,14.7L84.7,317l-5.6-2.3l-3.4-14.3l0-6.1l1.8-6l-2.8-4.1l-1.9-3.8l-0.2-0.6l0.9-2.2l2.3-0.9l2.7,5.2l0-7.2l3.9-1.9   l4.9-2l-3.2-1.3l1.5-4.6l-8-0.6l-2.9-3.3l7.1-1l-7.8-4.6l3.7-1.9L85.9,252.2z"
   style="enable-background:new 0 0 509 716.1;stroke:#000000;stroke-opacity:1"
   inkscape:label="서산" /><path
   id="nonsan"
   style="fill:#b8b8b8;stroke:#000000;stroke-width:0.5;stroke-opacity:1"
   class="st0"
   inkscape:label="논산"
   d="m 166.2,369 5.2,-9.9 4.4,5.6 7,-4.6 0.6,13 2.5,-1.7 3.2,4.8 4.4,-2.2 6.4,9.7 -1.2,8.3 -9,2.8 -0.4,4.6 -5.4,-2.7 -8.4,1.9 -1.1,3.5 -8.9,-3.7 -2,-8.9 -4.9,-0.7 -2.8,-8.3 z" /><path
   id="daejeon"
   class="st0"
   d="M 208.09961 335.59961 L 203.59961 335.69922 L 203.5 339.59961 L 203.09961 341.40039 L 203 341.40039 L 202.90039 342 L 202.69922 342.40039 L 201.80078 342.69922 L 201.09961 345.09961 L 200.80078 345.30078 L 200.69922 345.5 L 200.19922 345.69922 L 198.09961 346.59961 L 194.30078 347.40039 L 193.69922 347.59961 L 190.80078 361.19922 L 189.09961 366.90039 L 194.80078 371.09961 L 193.5 374 L 199.90039 383.69922 L 204 378.19922 L 205 369.90039 L 207 372.69922 L 211.40039 379.90039 L 214.69922 381.69922 L 220.30078 375.19922 L 221.30078 359.40039 L 224.40039 351.90039 L 228.09961 350.69922 L 223 346.40039 L 221.40039 348.5 L 220.19922 343.69922 L 218.69922 337.80078 L 215 342.19922 L 208.80078 341.09961 L 208.69922 339.80078 L 208.80078 338.90039 L 209.09961 337.80078 L 209.09961 337.59961 L 208.09961 335.59961 z "
   style="enable-background:new 0 0 509 716.1;stroke:#000000;stroke-opacity:1"
   inkscape:label="대전" /><path
   id="sejong"
   style="fill:#b8b8b8;stroke:#000000;stroke-width:0.5;stroke-opacity:1"
   class="st0"
   inkscape:label="세종"
   d="m 193.7,347.6 -4,1.2 -6.5,-5.2 -3.7,-10.8 4.8,-10.8 -7.2,-6.5 1.5,-11.1 -4.3,-2.9 3.1,-3.1 5.7,0.1 6.1,5.1 5,0.8 2.8,1.4 -4.1,6.6 3.1,8.4 4.8,3.7 4.9,-0.9 4,6.1 -1.6,5.9 -4.5,0.1 -0.1,3.9 v 0 l -0.4,1.8 -0.1,0.6 v 0 l -0.3,0.4 v 0 l -0.9,0.3 -0.7,2.3 v 0 l -0.3,0.3 v 0 l -0.1,0.2 v 0 l -0.5,0.2 v 0 l -2.1,0.9 v 0 l -3.7,0.8 h -0.1 z" /><path
   id="gyeryong"
   style="fill:#b8b8b8;stroke:#000000;stroke-width:0.5;stroke-opacity:1"
   class="st0"
   inkscape:label="계룡"
   d="m 193.5,374 -4.4,2.2 -3.2,-4.8 -2.5,1.7 -0.6,-13 1.4,-2.2 6.6,3.3 -1.7,5.7 5.7,4.2 z" /><path
   id="dangjin"
   class="st0"
   d="M106,281.5L106,281.5l-6.9,1.2l-2.4-7l-4.4-1.7l-1.1-19l0-0.1l4.5-9.6l16.1,9.8l11.8,2l7.2,3.9   l4.4,8.9l-0.1,0.1l3.7,4l-0.2,1l-0.1,0.7l-0.3,1.9l-0.1,0.7l-0.1,0.6l2.5,9.2l-3,1.2l-8,5.7l-9-8.3l-5.8,4.2L106,281.5z"
   style="enable-background:new 0 0 509 716.1;stroke:#000000;stroke-opacity:1"
   inkscape:label="당진" /><path
   id="geumsan"
   style="fill:#b8b8b8;stroke:#000000;stroke-width:0.5;stroke-opacity:1"
   class="st0"
   inkscape:label="금산"
   d="m 205,369.9 2,2.8 4.4,7.2 3.3,1.8 5.6,-6.5 5.5,-2 1.1,4 4.9,-0.9 1.8,7.2 -1.1,7.9 6.2,10.3 -2.4,4.6 2.6,1.1 -3.6,1.1 0.4,3.8 -10.5,-6.2 -0.9,8.7 h -8.8 l -2.6,-7 -4.3,3.3 -3.1,-2.2 -2.9,-14.2 -3.9,-2.7 1.2,-8.3 4.1,-5.5 z" /><path
   id="buyeo"
   style="fill:#b8b8b8;stroke:#000000;stroke-width:0.5;stroke-opacity:1"
   class="st0"
   inkscape:label="부여"
   d="m 118.8,382.3 5.3,-10.3 -4.9,-2 -1.9,-9.2 5.9,-7.4 8.3,3.7 7.3,-5.4 -1.8,3.5 4.9,6.5 6.8,1.4 6.4,-3.2 1.9,5.6 9.2,3.5 -10.4,11.5 2.8,8.3 -6.3,-1 -9.5,4.3 -1.4,8.9 -4.3,-4 v 0 l 0.3,-3.2 -5.8,-3.1 v -6.8 z" /><path
   id="seocheon"
   class="st0"
   d="M104.6,384.1l11,0.4l3.2-2.2l12.8,1.6l0,6.9l5.8,3.1l-0.4,3.1l0,0l4.3,4l-0.8,1.7l-14.9,5.4   L123,412l-0.1,0l-0.8-0.1l-7.3-0.9l0.7-4l-6.2-7.3l3.3-2.5l-4.1-0.5l-5.4-6.9l-7.9-1.7l-1.7,2.7l3.9-8.2L104.6,384.1z"
   style="enable-background:new 0 0 509 716.1;stroke:#000000;stroke-opacity:1"
   inkscape:label="서천" /><path
   id="cheongyang"
   style="fill:#b8b8b8;stroke:#000000;stroke-width:0.5;stroke-opacity:1"
   class="st0"
   inkscape:label="청양"
   d="m 116.6,339.8 8.2,-1.6 4.7,-9.7 0.9,0.4 5.6,0.6 2.8,-6.4 6.6,1.6 -0.8,12.6 2.8,3.7 7.4,-1.7 6.8,9.9 -6.5,10.7 -6.4,3.2 -6.8,-1.4 -4.9,-6.5 1.8,-3.5 -7.3,5.4 -8.3,-3.7 z" /><path
   id="hongseong"
   class="st0"
   d="M89.7,318.8l-0.4-4.9l17.2-5.7l-0.5,7.1l4.7,1.5l0.7-6.3l14.8-3.2l3.3,12l-4.5,7.5l4.5,1.9   l-4.7,9.7l-8.2,1.6l-7.2-3.7l-0.5,0.3l-0.1,0.3l0,0l-1,0.3l-1.2-4.3l-4-0.3l-0.3-2.5l-0.4,2.8l-0.1,0l-1.1-0.2l-3.1-2.5l-2-1.1   l-0.2-0.3l-2.7,2.7l-2.5-5.5l0.2-0.4L89.7,318.8z"
   style="enable-background:new 0 0 509 716.1;stroke:#000000;stroke-opacity:1"
   inkscape:label="홍성" /><path
   id="yesan"
   style="fill:#b8b8b8;stroke:#000000;stroke-width:0.5;stroke-opacity:1"
   class="st0"
   inkscape:label="예산"
   d="m 114.7,290.8 5.8,-4.2 9.1,8.3 8,-5.7 3.9,8.9 12.6,7.9 -8.7,18.7 -6.6,-1.6 -2.8,6.4 -5.6,-0.6 -0.9,-0.4 -4.5,-1.8 4.4,-7.5 -3.3,-12 -14.8,3.2 -0.6,6.3 -4.8,-1.5 0.5,-7.1 5.7,-14.7 2.5,1.2 z" /><path
   id="taean"
   style="enable-background:new 0 0 509 716.1;stroke:#000000;stroke-opacity:1"
   class="st0"
   d="M 71.199219 258.59961 L 67 274.5 L 60.199219 273.19922 L 64.300781 268.59961 L 55.800781 272.59961 L 56 275.5 L 54.900391 281 L 57.5 288.69922 L 54.099609 284.19922 L 54.099609 279.69922 L 51.400391 278.90039 L 50.900391 287.40039 L 46.599609 290.30078 L 47.5 300.40039 L 51.400391 296.69922 L 50.099609 293.30078 L 55.800781 293.5 L 60.599609 299.09961 L 51 301.30078 L 52 305.30078 L 57.099609 305.59961 L 67.800781 296.80078 L 65.900391 306.19922 L 69.800781 308.19922 L 69.599609 317.40039 L 71.384766 318.13867 L 71.84375 319.7207 L 71.800781 319.69922 L 71.599609 322 L 73.800781 342.19922 L 77.599609 342.5 L 77.400391 346.5 L 78.400391 347.09961 L 80.099609 347.5 L 80.800781 345.40039 L 84.699219 349.09961 L 85.5 349.19922 L 85.599609 349.09961 L 86.5 346 L 84.400391 339.09961 L 79.400391 327.30078 L 79.800781 325.59961 L 79.300781 321 L 79.199219 320.30078 L 77.400391 315.69922 L 77.041016 315.83789 L 76.736328 314.78711 L 77 314.69922 L 76 300.30078 L 76 294.19922 L 77.800781 288.19922 L 75 284.09961 L 71.5 284.09961 L 69.599609 286.80078 L 68.199219 283.59961 L 72.5 281.30078 L 72.699219 280.59961 L 71 277.5 L 71.199219 277.30078 L 71.5 276.09961 L 74.300781 273 L 74.400391 272.30078 L 70.599609 267.90039 L 71.5 263.59961 L 71.400391 260.40039 L 71.599609 259.40039 L 71.199219 258.59961 z "
   inkscape:label="태안" /><path
   id="cheongju"
   class="st0"
   d="M 229.30078 290.40039 L 221.19922 290.5 L 216.69922 292.09961 L 215 295.30078 L 211.09961 294 L 209.09961 296 L 203.30078 293.40039 L 198.30078 299.09961 L 194.19922 304.40039 L 197 305.80078 L 192.90039 312.40039 L 196 320.80078 L 200.80078 324.5 L 205.69922 323.59961 L 209.69922 329.69922 L 208.09961 335.59961 L 209.09961 337.80078 L 208.40039 338.90039 L 208.5 339.80078 L 208.69922 341.30078 L 208.80078 341.09961 L 215 342.19922 L 218.69922 337.80078 L 220.19922 343.69922 L 221.40039 348.5 L 223 346.40039 L 231.09961 335.80078 L 229.40039 329.5 L 235.40039 326.19922 L 239.40039 317.69922 L 242.5 319.5 L 250 318.19922 L 252.19922 320.90039 L 255.19922 318 L 247.59961 310.09961 L 249.80078 305.69922 L 241.90039 298.30078 L 240.19922 302.69922 L 236 301.80078 L 229.69922 291.40039 L 229.30078 290.40039 z "
   style="enable-background:new 0 0 509 716.1;stroke:#000000;stroke-opacity:1"
   inkscape:label="청주" /><path
   id="chungju"
   style="fill:#b8b8b8;stroke:#000000;stroke-width:0.5;stroke-opacity:1"
   class="st0"
   inkscape:label="충주"
   d="m 251.8,222.6 5.6,11 10.4,-3.3 3.3,2.2 1.2,-2.7 2.3,0.3 5.2,1.4 4.5,9 5.2,-2.7 5,6.1 0.3,19.6 -5.8,-0.5 4.1,6.4 -4.6,9.2 7.8,3.3 4.5,0.1 -5,5.6 -4.3,-3 -9.6,0.1 -4.1,-11 -8.5,-0.5 -6.3,-7.8 -5.6,0.4 -1.8,0.6 -2.7,-3.8 -4.6,-0.1 -3.7,-4.2 -4.5,0.4 4.1,-14.9 4.9,-5.7 -3.4,-4 z" /><path
   id="jecheon"
   style="fill:#b8b8b8;stroke:#000000;stroke-width:0.5;stroke-opacity:1"
   class="st0"
   inkscape:label="제천"
   d="m 274.6,230.1 -0.6,-9.5 6.2,-4.8 5.8,1.7 2.9,8.8 8.4,-2.6 2.1,-4.6 4.9,3.3 5.4,-5.6 7.6,6.4 6,-2.5 2.1,1.2 -4.3,6.9 -4.2,1.8 4.3,4.1 0.7,5.3 -4.2,-2.4 -0.1,4.4 -6.4,5.2 0.9,4.3 5.3,10.3 -3.8,4.3 0.8,9.6 -0.6,4.2 -3.2,-0.2 0.7,5.4 -1.9,-0.3 v 0 l -13.1,-2.9 -7.8,-3.3 4.6,-9.2 -4.1,-6.4 5.8,0.5 -0.3,-19.6 -5,-6.1 -5.2,2.7 -4.5,-9 z" /><path
   id="boeun"
   style="fill:#b8b8b8;stroke:#000000;stroke-width:0.5;stroke-opacity:1"
   class="st0"
   inkscape:label="보은"
   d="m 255.2,318 3.6,0.2 13.2,11.6 -3.4,6.6 0.6,17.9 -18.9,-2.8 -8.2,-8.7 -4.3,0.8 -2.4,5.8 -3.6,-2.4 -3.7,3.7 -5.1,-4.3 8.1,-10.6 -1.7,-6.3 6,-3.3 4,-8.5 3.1,1.8 7.5,-1.3 2.2,2.7 z" /><path
   id="okcheon"
   style="fill:#b8b8b8;stroke:#000000;stroke-width:0.5;stroke-opacity:1"
   class="st0"
   inkscape:label="옥천"
   d="m 228.1,350.7 3.7,-3.7 3.6,2.4 2.4,-5.8 4.3,-0.8 8.2,8.7 18.9,2.8 1.4,2.3 -5.7,6.3 -24.6,14.4 0.2,8.2 -6.9,-2 -1.8,-7.2 -4.9,0.9 -1.1,-4 -5.5,2 1,-15.8 3.1,-7.5 z" /><path
   id="yeongdong"
   style="fill:#b8b8b8;stroke:#000000;stroke-width:0.5;stroke-opacity:1"
   class="st0"
   inkscape:label="영동"
   d="m 233.6,383.5 6.9,2 -0.2,-8.2 24.6,-14.4 0.9,6.7 3.8,-0.1 2.8,-4.3 7.1,7.7 6.3,-3.2 4.5,3.1 -1.7,2.4 3.3,5.6 -10.1,0.5 2.5,6.7 -4.6,13.3 -10.6,7.5 -3.6,-2.6 -11.1,2.3 -7.6,-1.6 -1.6,-4.3 -3.6,3.9 -2.9,-4.8 v 0 l -6.2,-10.3 z" /><path
   id="jeungpyeong"
   style="fill:#b8b8b8;stroke:#000000;stroke-width:0.5;stroke-opacity:1"
   class="st0"
   inkscape:label="증평"
   d="m 229.3,290.4 -3.4,-4.4 4.6,-2 0.5,-5.1 4.9,-0.7 -0.2,3.8 2.8,-2 -1.7,13.5 5.1,4.8 -1.7,4.4 -4.2,-0.9 -6.3,-10.4 z" /><path
   id="jincheon"
   class="st0"
   d="M194.5,272.7l1-5.9l13.3-5.7l-2.1-2.5l7.8-4.3l0,0l0.1,9.7l7.9,2.8l9.3,8.8l-0.8,3.3l-0.6,5.1   l-4.6,2l3.5,4.4l-8.1,0.1l-4.5,1.6l-1.7,3.2l-3.9-1.3l-2.3-6.4L197,278l0.5-3.2l-2.6-1.9L194.5,272.7z"
   style="enable-background:new 0 0 509 716.1;stroke:#000000;stroke-opacity:1"
   inkscape:label="진천" /><path
   id="goesan"
   style="fill:#b8b8b8;stroke:#000000;stroke-width:0.5;stroke-opacity:1"
   class="st0"
   inkscape:label="괴산"
   d="m 257.4,265.8 5.6,-0.4 6.3,7.8 8.5,0.5 4.1,11 v 0 l 9.6,-0.1 -3.3,10.8 4.8,6.2 -13.8,-4.6 -4,7.3 -4.4,-0.6 -2.5,2 7.4,2.7 -1,9.8 -5.7,-8.5 -4.1,3.5 1.5,3.2 -7.6,1.8 -3.6,-0.2 -7.6,-7.9 2.2,-4.4 -7.9,-7.4 -5.1,-4.8 1.7,-13.5 5.1,-0.6 2,-4.6 11.7,-0.1 z" /><path
   id="eumseong"
   style="fill:#b8b8b8;stroke:#000000;stroke-width:0.5;stroke-opacity:1"
   class="st0"
   inkscape:label="음성"
   d="m 237.3,231.8 8.4,2.3 3.4,4 -4.9,5.7 -4.1,14.9 4.5,-0.4 3.7,4.2 4.6,0.1 2.7,3.8 1.8,-0.6 -0.1,8.9 -11.7,0.1 -2,4.6 -5.1,0.6 -2.8,2 0.2,-3.8 -4.9,0.7 0.9,-3.2 -9.3,-8.8 -7.9,-2.8 -0.1,-9.7 5,-6.8 3.9,-0.7 4.8,2.7 2.7,-5.3 3.4,1 -1.3,-3 5,-1.9 z" /><path
   id="danyang"
   style="fill:#b8b8b8;stroke:#000000;stroke-width:0.5;stroke-opacity:1"
   class="st0"
   inkscape:label="단양"
   d="m 321.2,234.7 10.7,-3.9 5.1,8.7 9,-3.8 5.3,5.6 10.6,0.3 3.7,3.4 -2.4,3.9 -3.1,-1.9 -4.8,2.9 -1.8,5.7 -14.1,11.2 -2.1,8 3.2,4.4 -3.5,5.7 -6.6,1.6 -16,-10.8 -0.8,-9.6 3.8,-4.3 -5.3,-10.3 -0.9,-4.3 6.4,-5.2 0.1,-4.4 4.2,2.4 z" /><path
   id="yangpyeong"
   style="fill:#b8b8b8;stroke:#000000;stroke-width:0.5;stroke-opacity:1"
   class="st0"
   inkscape:label="양평"
   d="m 197.1,174.8 8.1,-20 v 0 l 7.6,-3.2 5.3,14.3 10.6,-1.1 -0.1,-7 v 0 l 5.7,-3.6 12.8,10.1 11.1,0.4 6.3,4.9 -10.9,7.7 5,4.8 0.1,5.3 v 0 l -5.1,11.2 v 0 l -7.2,-0.9 0.7,-5.8 -20.5,0.1 -4.5,-4.8 -4.2,2.8 -6.3,-2.7 -2.8,2.8 -4.1,-5.5 2.4,-6.3 -2.8,-5.2 z" /><path
   id="gapyeong"
   style="fill:#b8b8b8;stroke:#000000;stroke-width:0.5;stroke-opacity:1"
   class="st0"
   inkscape:label="가평"
   d="m 214.5,91.6 3.2,7 8.4,1 0.7,5.1 6.8,1.7 2,4.5 -1.3,8.1 -9.9,6.8 -0.6,6.3 3,5.1 -4.7,6.2 6.5,-1.3 -3,12.7 3,3 0.1,7 -10.6,1.1 -5.3,-14.3 -7.6,3.2 1.2,-4.7 -5.8,-11.8 -8.3,-4.2 v 0 l 3.1,-15 3.8,0.7 1,-8.5 6.7,-2.8 v -6.1 z" /><path
   id="yeoncheon"
   class="st0"
   d="M134.2,100.4l7.3-4.3l0.1-10.6l6.1-5.9l7.6,0.1l-2.1-3.9l4.1-10.2l15-8.8l2.8,6.2l4.6-0.7   l2.1,8.2l-0.8,2.2l1.9,16.4l-5.1,1.5l-0.8-2.4l-3.3,2l-0.1,3.2l2.6,1.7l1.2,5.8l-3.1,2.1l-2.4-1.7l-1.2,2.8l-5.2-1.2l-5,7.9   l-4.6-2.2l4.8-5.8l-2.7-4.9l-6.4,4.6l-5.3-2.2l-1.1,4.5l-4.9-3.1l-1.8,3.4L134.2,100.4z"
   style="enable-background:new 0 0 509 716.1;stroke:#000000;stroke-opacity:1"
   inkscape:label="연천" /><path
   id="yeoju"
   style="fill:#b8b8b8;stroke:#000000;stroke-width:0.5;stroke-opacity:1"
   class="st0"
   inkscape:label="여주"
   d="m 208.8,190.1 2.8,-2.8 6.3,2.7 4.2,-2.8 4.5,4.8 20.5,-0.1 -0.7,5.8 7.2,0.9 -1.4,19.3 v 0 l -0.2,4.5 v 0.1 h -0.1 l -0.1,0.1 -6.1,11.5 -8.4,-2.3 0.5,-1 -4.6,-4.4 -3.1,3 -6.3,-2.9 v 0 l 1.1,-2.3 v 0 l -0.5,-5.7 v 0 l 1.4,-1.1 1.1,-10 -9.4,-7.9 -3.5,0.5 0.3,-4.2 -5.5,-5.6 z" /><path
   id="pocheon"
   style="fill:#b8b8b8;stroke:#000000;stroke-width:0.5;stroke-opacity:1"
   class="st0"
   inkscape:label="포천"
   d="m 174.5,135.1 v 0 l -2.2,-1.2 0.4,-12.5 4.7,-2.5 v -4.3 l -6.8,-10.6 1.1,-2.8 2.5,1.7 3.1,-2.1 -1.2,-5.8 -2.6,-1.7 0.2,-3.2 3.3,-2 0.8,2.4 5.1,-1.5 -1.9,-16.3 0.7,-2.2 5.4,7.1 7.3,-6.6 -0.9,9.2 7.5,5.4 5.2,-4.5 3.3,2.4 3.1,-1.9 1.9,10 -7.6,10.8 v 6.1 l -6.7,2.8 -1,8.5 -3.8,-0.7 -3.1,15 -5.2,4.1 -1.7,-2.5 v 0 l -8.1,2.1 z" /><path
   id="yangju"
   style="fill:#b8b8b8;stroke:#000000;stroke-width:0.5;stroke-opacity:1"
   class="st0"
   inkscape:label="양주"
   d="m 150.3,138.8 1.1,-6 -4.2,-0.6 -0.2,-5.4 4.3,-2.5 4.6,-15.8 4.6,2.2 6.2,9.3 6,1.4 v 0 l -0.4,12.5 h -0.1 l -12.8,2.7 1.6,9.6 -0.9,2.7 -2,0.7 -4.6,-2.1 -5.9,3.5 z" /><path
   id="gyeonggi"
   style="fill:#b8b8b8;stroke:#000000;stroke-width:0.5"
   class="st0"
   inkscape:label="광주"
   d="m 176,202.8 4.5,-10.2 2.5,-3.6 -1.8,-7.3 8.2,-0.2 5.1,-5.9 2.6,-0.8 7.2,-1.7 2.8,5.2 -2.4,6.3 4.1,5.6 5.5,5.6 -0.3,4.2 -9.9,6.6 -3.1,7.1 -7.4,0.1 0.5,-11.7 -5.6,-2.4 -4.5,5 -1.3,-3 -6.2,1.6 z" /><path
   id="seongnam"
   class="st0"
   d="M 181.19922 181.69922 L 180.80078 182.19922 L 176.80078 181.90039 L 174.30078 183 L 170.69922 184.59961 L 164.69922 188.59961 L 164.09961 190.90039 L 164.19922 192.80078 L 162.30078 197.69922 L 172.5 203.69922 L 176 202.80078 L 180.5 192.59961 L 183 189 L 181.19922 181.69922 z "
   style="enable-background:new 0 0 509 716.1;stroke:#000000;stroke-opacity:1"
   inkscape:label="성남" /><path
   id="hwaseong"
   class="st0"
   d="M132.9,228L132.9,228L132.9,228L132.9,228z M132.5,213.9l2.6,0l-0.7-2.7l0.4-0.2l0.7,0.1   l4.5,4.6l0.3-1.8l0.9-0.4l2.9,2.1l-3.1-2.5l5.5-2.9l3.3,2l5.4,7.8l8.4-1.4l3.7-0.2l2.7,3.8l7.7-0.6l1.2,6.3l-4.1,5.2l0,0.1   l-0.6,0.2l-2.5,0.1l-4.8-8.7l-4.7-0.3l-4,3.9l4.5,4.8l0,0l0.6,1.3l-4.8,1.7l-0.2,8.7l-14.1,0.4l-4.4,7.7l0,0l-11.2-2l-0.4-4.1   l0.8-1.1l-0.3-8.6l7.1-3.9l-4.4-1.4l2.8-1.7l-0.4-1.5l-0.7-0.7l0,0l0.8-3l-1.6,3.5l-5.1,0.9l-8,8.2l-1.2-3.6l3-2.1l-6-0.6l0.1-0.3   l2.5-5.1l-2.7,0.4l6.4-4.2l-4.1,0.6l0.1-1.3l-0.6-4.3l0-0.1l3.1-2.6l1.8,0.4l2.2,0.7l2.6,0.2l2.1,0.1l2.1,0.9L132.5,213.9z"
   style="enable-background:new 0 0 509 716.1;stroke:#000000;stroke-opacity:1"
   inkscape:label="화성" /><path
   id="gimpo"
   class="st0"
   d="M99.3,133.9l0.6-2l8.8,4.6l8.7-2.4l1.2,12.1l0.2,4.2l7,4.1l3.3,2.8l5.3,3.9l-1.1,3.7l-8.5-1.7   l-9-7.5l-7.7,7.2l-4-1.1l-0.9-4l-1.7-2.9l-0.1-0.1l-0.9-5.1l0.3-4.1l-1.2-2.6l0.1-0.7l0.2-0.8l0.6-1.6l0.1-1l-1.4-2.6L99.3,133.9z"
   style="enable-background:new 0 0 509 716.1;stroke:#000000;stroke-opacity:1"
   inkscape:label="김포" /><path
   id="anseong"
   style="fill:#b8b8b8;stroke:#000000;stroke-width:0.5;stroke-opacity:1"
   class="st0"
   inkscape:label="안성"
   d="m 174.1,241.8 7.7,1.1 8.2,-6.1 1.6,-5.2 5.5,7.9 2.4,-2.2 11.1,4.9 1.5,-9.1 11,6.9 -3.5,7.6 -5,6.8 -7.8,4.2 2,2.5 -13.3,5.7 -1,5.9 -1.6,-3.1 -8.1,-2.7 -1,-3.3 -10.3,-3 4.4,-4.3 -0.3,-4.7 -5.9,-1.1 z" /><path
   id="icheon"
   style="fill:#b8b8b8;stroke:#000000;stroke-width:0.5;stroke-opacity:1"
   class="st0"
   inkscape:label="이천"
   d="m 214,200 3.5,-0.5 9.4,7.9 0.1,0.1 -1.2,9.9 v 0 l -1.4,1.1 0.5,5.7 -1.1,2.3 6.3,2.9 3.1,-3 4.6,4.4 v 0 l -0.5,1 0.8,8.6 -5,1.9 1.3,3 -3.4,-1 -2.7,5.3 -4.8,-2.7 -3.9,0.7 3.5,-7.6 -11,-6.9 -2.1,-5.7 -10,-5.8 1,-7.9 3.1,-7.1 z" /><path
   id="paju"
   class="st0"
   d="M118.3,134.9l0.1-29.1l15.7-5.4l4.4,4.5l1.8-3.4l4.9,3.1l1.1-4.5l5.3,2.2l6.4-4.6l2.7,4.9   l-4.8,5.8l-4.5,15.7l-4.3,2.6l0.2,5.3l4.3,0.6l-1.1,6l-5.1,4l-6.4-0.7l-4.7-1.5l-3.2,5.2l-12.4,0.5L118.3,134.9z"
   style="enable-background:new 0 0 509 716.1;stroke:#000000;stroke-opacity:1"
   inkscape:label="파주" /><path
   id="yongin"
   class="st0"
   d="M 162.30078 197.69922 L 161 201 L 163.69922 205.5 L 163.69922 205.69922 L 169.90039 209.30078 L 167 218.40039 L 169.80078 222.09961 L 177.5 221.59961 L 178.69922 227.90039 L 174.69922 233.09961 L 174 233.40039 L 174.09961 241.80078 L 181.80078 242.90039 L 190 236.80078 L 191.59961 231.59961 L 197.09961 239.5 L 199.5 237.30078 L 210.59961 242.19922 L 212.09961 233.09961 L 210 227.40039 L 200 221.59961 L 201 213.69922 L 193.59961 213.80078 L 194.09961 202.09961 L 188.5 199.69922 L 184 204.69922 L 182.69922 201.69922 L 176.5 203.30078 L 176 202.80078 L 172.5 203.69922 L 162.30078 197.69922 z "
   style="enable-background:new 0 0 509 716.1;stroke:#000000;stroke-opacity:1"
   inkscape:label="용인" /><path
   id="suwon"
   class="st0"
   d="M 161 201 L 155.19922 204 L 153.80078 208.59961 L 150.30078 208.5 L 149.59961 212.19922 L 155 220 L 163.40039 218.59961 L 167 218.40039 L 169.90039 209.30078 L 163.69922 205.69922 L 163.69922 205.5 L 161 201 z "
   style="enable-background:new 0 0 509 716.1;stroke:#000000;stroke-opacity:1"
   inkscape:label="수원" /><path
   id="goyang"
   class="st0"
   d="M 150.30078 138.80078 L 145.19922 142.69922 L 138.80078 142 L 134.09961 140.5 L 130.90039 145.59961 L 118.5 146.09961 L 118.69922 150.30078 L 125.69922 154.40039 L 129.09961 157.19922 L 134.40039 161.09961 L 140.69922 166.40039 L 144.30078 163.40039 L 146.80078 162.69922 L 147.19922 154.30078 L 152.5 152.80078 L 153.80078 157.40039 L 155.90039 157.09961 L 157.30078 156.5 L 157 156.40039 L 158.09961 149.59961 L 153.5 147.5 L 147.59961 151 L 150.30078 138.80078 z "
   style="enable-background:new 0 0 509 716.1;stroke:#000000;stroke-opacity:1"
   inkscape:label="고양" /><path
   id="siheung"
   class="st0"
   d="M127.5,192.6l0.5-1.2l0-0.2l3.1-9.3l6,2l2.5,7.5l3.7,1.5l0.5,3.5l0.1,0.3l-10.7,3.4l-1.4,2.9   l-3-0.6l-4.5,4l-0.8,1l-0.7-0.1l-5.1-3.2l-0.1-0.2l3.9-3.2l0-0.5l3.7-4.8l1.1-1.3l0.1-0.2L127.5,192.6z"
   style="enable-background:new 0 0 509 716.1;stroke:#000000;stroke-opacity:1"
   inkscape:label="시흥" /><path
   id="hanam"
   style="fill:#b8b8b8;stroke:#000000;stroke-width:0.5;stroke-opacity:1"
   class="st0"
   inkscape:label="하남"
   d="m 180.2,165.1 3.9,-1.2 10.4,11.7 -5.1,5.9 -8.2,0.2 -0.4,0.5 -4,-0.3 0.2,-6.8 4.8,-4.4 -1.9,-5.3 z" /><path
   id="uiwang"
   style="fill:#b8b8b8;stroke:#000000;stroke-width:0.5;stroke-opacity:1"
   class="st0"
   d="m 164.1,190.9 0.1,1.9 -1.9,4.9 -1.3,3.3 -5.8,3 -1.4,4.6 -3.5,-0.1 -0.3,-0.7 4,-8.5 2.6,-6.1 z"
   inkscape:label="의왕" /><path
   id="gunpo"
   style="fill:#b8b8b8;stroke:#000000;stroke-width:0.5;stroke-opacity:1"
   class="st0"
   inkscape:label="군포"
   d="m 150,207.8 -7,-2.2 2.8,-6 2.8,-2.8 0.1,0.1 2.8,-0.3 2.5,2.7 z" /><path
   id="osan"
   style="fill:#b8b8b8;stroke:#000000;stroke-width:0.5;stroke-opacity:1"
   class="st0"
   inkscape:label="오산"
   d="m 162.5,233.3 -4.5,-4.9 4,-3.9 4.7,0.3 4.8,8.7 -3,2.8 -5.4,-1.7 z" /><path
   id="namyangju"
   style="fill:#b8b8b8;stroke:#000000;stroke-width:0.5;stroke-opacity:1"
   class="st0"
   inkscape:label="남양주"
   d="m 185.4,135.7 1.7,2.5 5.2,-4.1 8.3,4.2 5.8,11.8 -1.2,4.7 -8.1,20 -2.6,0.8 -10.4,-11.7 -3.9,1.2 -3,-9.9 -4.4,0.3 -3.7,-8.4 8.2,-9.3 z" /><path
   id="gwacheon"
   style="fill:#b8b8b8;stroke:#000000;stroke-width:0.5;stroke-opacity:1"
   class="st0"
   inkscape:label="과천"
   d="m 157.4,184.2 5.8,-0.9 1.5,5.3 -0.6,2.3 -7.5,2.3 -2.3,-6.3 z" /><path
   id="ansan"
   class="st0"
   d="M 144 196.80078 L 139.09961 198.30078 L 133.19922 200.19922 L 131.80078 203.09961 L 128.80078 202.5 L 124.80078 206 L 133.59961 209.30078 L 135.80078 209.09961 L 136.40039 210.19922 L 139.80078 213.80078 L 140.69922 213.09961 L 146.30078 210.30078 L 149.59961 212.19922 L 150.30078 208.5 L 150 207.80078 L 143 205.59961 L 145.80078 199.59961 L 144 196.80078 z "
   style="enable-background:new 0 0 509 716.1;stroke:#000000;stroke-opacity:1"
   inkscape:label="안산" /><path
   id="anyang"
   class="st0"
   d="M 149.90039 185.40039 L 146.19922 187.19922 L 143.5 192.90039 L 143.90039 196.5 L 144 196.80078 L 145.80078 199.59961 L 148.69922 196.90039 L 151.5 196.59961 L 154 199.30078 L 156.59961 193.19922 L 154.30078 186.90039 L 152.40039 187.30078 L 149.90039 185.40039 z "
   style="enable-background:new 0 0 509 716.1;stroke:#000000;stroke-opacity:1"
   inkscape:label="안양" /><path
   id="pyeongtaek"
   class="st0"
   d="M137.7,266.4l-0.8-8.7l-6.1-3.1l8.8-1.5l4.4-7.7l14.1-0.4l0.2-8.7l4.8-1.7l5.5,1.7l2.9-2.8   l2.5-0.1l0.1,8.5l-2.3,8.6l5.9,1.1l0.3,4.8l-4.3,4.3l-5.8,4.9l-14.8,2.6l0,0l-1.9,0.5l-0.2,0.1l-3.8,2.4l-0.5-2.2l-3.7,0.7   l-2.9,0.4L137.7,266.4z"
   style="enable-background:new 0 0 509 716.1;stroke:#000000;stroke-opacity:1"
   inkscape:label="평택" /><path
   id="gwangmyeong"
   style="fill:#b8b8b8;stroke:#000000;stroke-width:0.5;stroke-opacity:1"
   class="st0"
   inkscape:label="광명"
   d="m 138.1,181.1 5.1,-1.2 3,7.3 -2.7,5.7 h -0.1 l -3.7,-1.5 -2.5,-7.5 z" /><path
   id="bucheon"
   class="st0"
   d="M137.3,176.2l-1.6,5.3l2.3-0.4l-0.9,2.8l-6-2l-1.3,0l-3.2-2.4l2.3-5.8l0.8-4.7l6.9,2.2   L137.3,176.2z"
   style="enable-background:new 0 0 509 716.1;stroke:#000000;stroke-opacity:1"
   inkscape:label="부천" /><path
   id="guri"
   style="fill:#b8b8b8;stroke:#000000;stroke-width:0.5;stroke-opacity:1"
   class="st0"
   inkscape:label="구리"
   d="m 172.8,155.5 4.4,-0.3 3,9.9 -0.3,0.3 -6.6,3.5 -1.8,-2.7 0.6,-7.3 z" /><path
   id="uijeongbu"
   style="fill:#b8b8b8;stroke:#000000;stroke-width:0.5;stroke-opacity:1"
   class="st0"
   inkscape:label="의정부"
   d="m 172.2,133.9 2.3,1.2 2.8,2.7 -8.2,9.3 -3.6,1.6 -4.5,-2.5 -1.6,-9.6 z" /><path
   id="dongducheon"
   style="fill:#b8b8b8;stroke:#000000;stroke-width:0.5;stroke-opacity:1"
   class="st0"
   inkscape:label="동두천"
   d="m 172.7,121.4 -6,-1.4 -6.2,-9.3 4.9,-7.9 5.2,1.2 6.8,10.6 v 4.3 z" /><path
   style="enable-background:new 0 0 509 716.1;stroke:#000000;stroke-opacity:1;fill:#b8b8b8;fill-opacity:1;stroke-width:0.5;stroke-dasharray:none"
   d="m 78.7,131.4 9.9,-5.9 9.5,8.3 0.3,1.8 0.3,0.9 1.6,2.1 -0.1,0.3 v 0.7 l -0.1,0.2 -0.8,1.1 v 0 l -0.5,1 v 0 0.7 l -0.1,0.5 1.6,2.4 -0.4,0.4 -0.3,1.3 -0.1,1.4 0.9,6.2 0.1,0.2 0.5,1.1 1.3,2 0.1,0.5 -3.6,2.8 -0.5,0.5 -4.4,-0.3 -6.6,0.7 -1.7,-0.2 -4.6,-2.8 -0.6,-3.7 5.9,-3.2 -2.7,-4.7 -2,-2.3 -1.8,-0.5 -1,-2.1 0.2,-3.7 -0.3,-7.7 z"
   id="ganghwa"
   inkscape:label="강화" /><path
   id="incheon"
   class="st0"
   d="M 115.80078 155.59961 L 108.09961 162.80078 L 117.09961 165.19922 L 108.80078 169.5 L 109.40039 174.80078 L 109.59961 175.90039 L 109.59961 178 L 110.80078 178 L 111.90039 178 L 114 176.80078 L 118.02344 181.00977 L 113.59961 178 L 112.30078 178.5 L 111.19922 178.90039 L 111.09961 178.90039 L 110.30078 179.30078 L 110.5 179.90039 L 114.30078 182.30078 L 112.69922 186.5 L 112.80078 187.19922 L 113.30078 188.19922 L 111.90039 188.80078 L 109.90039 188.80078 L 109.5 189 L 110.09961 195 L 115.69922 199.90039 L 106.69922 201.19922 L 111.59961 202.09961 L 113.90039 202.09961 L 116.69922 200.80078 L 117 200.5 L 119.80078 197 L 119.40039 195.19922 L 117.19922 194.30078 L 117.30078 194.30078 L 119.40039 195.19922 L 124.69922 195.19922 L 126.19922 193.59961 L 126.80078 192.80078 L 126.90039 192.30078 L 127.80078 191.40039 L 127.90039 191.09961 L 127.90039 191 L 131.19922 181.90039 L 129.90039 181.90039 L 126.80078 179.5 L 129 173.69922 L 129.80078 169 L 133.30078 164.80078 L 124.80078 163.09961 L 115.80078 155.59961 z "
   style="enable-background:new 0 0 509 716.1;stroke:#000000;stroke-opacity:1"
   inkscape:label="인천" /><path
   id="chuncheon"
   style="fill:#b8b8b8;stroke:#000000;stroke-width:0.5;stroke-opacity:1"
   class="st0"
   inkscape:label="춘천"
   d="m 282.5,108.7 -7.6,18 -5.2,-5.7 -2.4,4 -7.2,0.6 2.1,6.2 v 0 l 3.4,4 -3.1,4.2 h -11.1 l -11.9,9.8 -1.4,-3 -3.3,3.6 -2,-7.1 -4.2,-1.2 -6.5,1.3 4.7,-6.2 -3,-5.1 0.6,-6.3 9.9,-6.8 1.3,-8.1 -2,-4.5 -6.8,-1.7 -0.6,-5.1 4.7,-6.2 -0.6,-7 9.7,4.7 0.3,4.8 5.7,-2.2 2.8,2.1 2.9,-2.4 5.2,7.1 4.8,-1 3.8,-2.9 -0.6,-4.9 0.2,-0.3 5.9,0.2 4,5.8 2.5,-3.9 4.8,5.7 2.4,-2.7 2,0.7 -5.6,4 z" /><path
   id="wonju"
   style="fill:#b8b8b8;stroke:#000000;stroke-width:0.5;stroke-opacity:1"
   class="st0"
   inkscape:label="원주"
   d="m 258.7,187.4 2.5,-1.2 5.8,7.4 1.2,-10.7 6.5,-6.2 2.5,8.2 16.9,4.2 1.6,3.2 -7.8,11.6 2.3,3.7 7,1.5 0.9,4.1 3.4,0.2 6.8,-4.1 1.4,7.5 -5.4,5.6 -4.9,-3.3 -2.1,4.6 -8.4,2.6 -2.9,-8.8 -5.8,-1.7 -6.2,4.8 0.6,9.5 -2.3,-0.3 -1.2,2.7 -3.3,-2.2 -10.4,3.3 -5.5,-11 0.1,-0.2 0.2,-4.5 1.4,-19.3 z" /><path
   id="gangneung"
   class="st0"
   d="M375.1,159.7l-0.5-7.1l3.9-2.9l-2.8-10.7l-5.7-4.6l-11.9,0.5l-0.4-6.2l-2.2-1.9l0.6-6.4   l6.7-5.2l9.4-1.4l0,0.1l3.4-0.8l0-0.1l0.1-0.3l4.8-0.6l2.8-0.6l31.1,37.4l-0.8,4l3,7.5l0,0.1l-1.4,0.6l-0.1,0l-1.3,7.9l-9.1,2.2   l-8.5-2.8l-2.7-6.3l-4.2,12.2l-4.4,2l-2.9-5.6l-6.6-1.2l-2.2,3L368,166l0.6-3.8L375.1,159.7z"
   style="enable-background:new 0 0 509 716.1;stroke:#000000;stroke-opacity:1"
   inkscape:label="강릉" /><path
   id="donghae"
   class="st0"
   d="M426.2,176.6l2,3.2l-2.7,2.1l0,0l-10.3,0.8l-6.3,5.1l-5.9-3l3.9-6l-3.5-4.6l0.1-0.1l1.2-3   l9.1-2.2l1.3-7.9l0.1,0l1.4-0.6l0-0.1l5.5,2.9l0,7l4.6,6.1L426.2,176.6z"
   style="enable-background:new 0 0 509 716.1;stroke:#000000;stroke-opacity:1"
   inkscape:label="동해" /><path
   id="taebaek"
   style="fill:#b8b8b8;stroke:#000000;stroke-width:0.5;stroke-opacity:1"
   class="st0"
   inkscape:label="태백"
   d="m 408.3,201.8 2.6,5.3 -3.4,9.8 1.5,6 11.1,6.8 1,9 -4.4,5.5 -12.6,-1.7 -1.8,-2.5 -3,0.4 -1.3,3.7 -4.3,-0.5 1.3,-4.7 -2.5,-1.1 4,-6 0.8,-10.9 7.4,-19 z" /><path
   id="sokcho"
   class="st0"
   d="M355.1,62.8l3,10.9l-17.7,6.7l-5.5-8.9l2.6-4.3l4.8,2.5L355.1,62.8z"
   style="enable-background:new 0 0 509 716.1;stroke:#000000;stroke-opacity:1"
   inkscape:label="속초" /><path
   id="samcheok"
   class="st0"
   d="M431.5,182.8l1.5,6.4l7.5,5.3l1.5,8.9l11.3,13.5l-1.9,6.6l3.1,7.3l-8.1,3.5l-9,8.1l1.7,5.5   l-6.6-0.4l-11.4-9l0,0l-1-9l-11.1-6.8l-1.4-6l3.4-9.8l-2.7-5.3l-3.6,0.2l-7.4,18.9l0,0l-6.4-13.6l2.4-3.1l-4.1-2.4l6.9-15.4   l6.8-1.5l5.9,3l6.3-5.1l10.3-0.8l0,0l2.7-2.1L431.5,182.8z"
   style="enable-background:new 0 0 509 716.1;stroke:#000000;stroke-opacity:1"
   inkscape:label="삼척" /><path
   id="hongcheon"
   style="fill:#b8b8b8;stroke:#000000;stroke-width:0.5;stroke-opacity:1"
   class="st0"
   inkscape:label="홍천"
   d="m 282.5,108.7 4.4,-0.5 7.7,7.2 8.5,0.4 6,12.8 10.8,-8.8 6.4,6.6 6.8,-6.5 1.5,-2.9 3.7,3.2 4.6,-4.4 7.3,0.2 4.1,4 1.8,0.5 -0.6,6.3 -4.8,3.4 -2,10.7 -8.5,0.3 -5.2,6.7 -12.8,-2.3 -7.2,12 -16.9,-7.9 -0.5,3.7 -11.7,6.6 -6.1,-3.9 -15.3,13.5 -6.3,-4.9 -11.1,-0.4 -12.8,-10.1 -5.7,3.6 -3,-3 3,-12.7 4.2,1.2 2,7.1 3.3,-3.6 1.4,3 11.9,-9.8 h 11.1 l 3.1,-4.2 -3.4,-4 v 0 l -2.1,-6.2 7.2,-0.6 2.4,-4 5.2,5.7 z" /><path
   id="hoengseong"
   style="fill:#b8b8b8;stroke:#000000;stroke-width:0.5;stroke-opacity:1"
   class="st0"
   inkscape:label="횡성"
   d="m 258.7,187.4 -0.1,-5.3 -5,-4.8 10.9,-7.7 v 0 l 15.3,-13.5 6.1,3.9 11.7,-6.6 0.5,-3.7 16.9,7.9 3.6,1 2.5,12.9 -7.2,9.2 2.8,11.1 -3.6,3.2 -6.4,-0.7 0.1,8.2 -2.4,3 -6,-0.4 -1.2,4 -7,-1.5 -2.3,-3.7 7.8,-11.6 -1.6,-3.2 -16.9,-4.2 -2.5,-8.2 -6.5,6.2 -1.2,10.7 -5.8,-7.4 z" /><path
   id="yeongwol"
   style="fill:#b8b8b8;stroke:#000000;stroke-width:0.5;stroke-opacity:1"
   class="st0"
   inkscape:label="영월"
   d="m 316.7,191.8 7.6,4.7 -0.1,8.9 6.2,4.7 4.4,-0.7 1.9,-7.5 v 0 l 11.6,8.5 h 0.1 l 3.1,0.2 v 0 l 4.2,2.7 v 0 l 0.4,7.6 5.1,0.1 2.9,5.7 14,-4.8 v 0 l 18.4,9.9 -4,6 2.5,1.1 -1.3,4.7 4.3,0.5 -1.7,3.7 -2.3,-1.3 -0.7,1.5 -11.7,-7.5 -3.2,10.2 -5.6,-1.8 -7.2,-3.9 v 0 l -3.7,-3.4 -10.6,-0.3 -5.3,-5.6 -9,3.8 -5.1,-8.7 -10.7,3.9 -4.3,-4.1 4.2,-1.8 4.3,-6.9 -2.1,-1.2 -6,2.5 -7.6,-6.4 -1.4,-7.5 -6.8,4.1 -3.4,-0.2 -0.9,-4.1 1.2,-4 6,0.4 2.4,-3 -0.1,-8.2 6.4,0.7 z" /><path
   id="pyeongchang"
   style="fill:#b8b8b8;stroke:#000000;stroke-width:0.5;stroke-opacity:1"
   class="st0"
   inkscape:label="평창"
   d="m 355.5,126.8 2.2,2 0.4,6.1 11.9,-0.4 5.7,4.6 2.8,10.7 -3.9,2.8 0.5,7.1 -6.5,2.6 -0.6,3.7 -5.4,4.8 -1.3,-5.2 -3,0.6 -1.9,12.9 -2.5,-2.4 -0.1,6.5 -6.2,0.9 -0.9,6.1 4.1,2.6 7.4,18.7 v 0 l -2.5,1.9 -4.2,-2.8 -3.1,-0.2 -11.7,-8.5 -1.9,7.5 -4.4,0.7 -6.2,-4.7 0.1,-8.9 -7.6,-4.7 -2.8,-11.1 7.2,-9.2 -2.5,-12.9 -3.6,-1 7.2,-12 12.8,2.3 5.2,-6.7 8.5,-0.3 2,-10.7 z" /><path
   id="Jeongseon"
   style="fill:#b8b8b8;stroke:#000000;stroke-width:0.5;stroke-opacity:1"
   class="st0"
   inkscape:label="정선"
   d="m 358.2,211.5 -7.4,-18.7 -4.1,-2.6 0.9,-6.1 6.2,-0.9 0.1,-6.5 2.5,2.4 1.9,-12.9 3,-0.6 1.3,5.2 5.4,-4.8 5.1,6.4 2.2,-3 6.7,1.2 2.9,5.6 4.4,-2 4.2,-12.1 2.8,6.2 8.4,2.9 -1.2,2.9 -0.1,0.1 3.5,4.6 -3.9,6 -6.8,1.5 -6.9,15.4 4.1,2.4 -2.5,3.2 6.4,13.6 -0.8,10.9 -18.4,-9.9 -14,4.8 -2.9,-5.7 -5.1,-0.1 -0.4,-7.6 z" /><path
   id="cheorwon"
   class="st0"
   d="M184.6,49.9l-2.6,1l-5.7-0.6l-4.1,6.5l2.8,6.2l4.6-0.7l2.1,8.2l5.4,7.1l7.3-6.6l-0.9,9.2   l7.5,5.4l5.2-4.5l3.3,2.4l3.1-1.9l8-2.8l1.6-10.3l11.1-13l13.1,5.4l3.5-4.8l9.7-1.5l-6.3-5.6l-5.6,2.1L232,46.9l-11.2,5.9   l-14.2-5.9l-3.5,5.2l-6.7,0.4l-0.1-3.4l-7.3-1.5L184.6,49.9L184.6,49.9z"
   style="enable-background:new 0 0 509 716.1;stroke:#000000;stroke-opacity:1"
   inkscape:label="철원" /><path
   id="hwacheon"
   class="st0"
   d="M260.4,54.5l2.8,0.2l2.9,0.6l-1.4,11.5l3.3,1.7l3.1,23l-5.9-0.2l-0.2,0.3l0.6,5l-3.8,2.8   l-4.8,1l-5.2-7.1l-2.9,2.3l-2.9-2.1l-5.7,2.3l-0.3-4.8l-9.7-4.8l0.6,7.1l-4.8,6.1l-8.5-0.9l-3.1-7l-1.9-10l0,0l8-2.8l1.6-10.3   l11.1-13l13.1,5.4l3.5-4.8l9.7-1.5L260.4,54.5z"
   style="enable-background:new 0 0 509 716.1;stroke:#000000;stroke-opacity:1"
   inkscape:label="화천" /><path
   id="yanggu"
   class="st0"
   d="M284.8,54.1l8.6-0.1l3.3-5.9l7.1,1.8l-1.1,7.3l-4.5,4.5l-4.6,13.9l2.3,6.8l-2.1,2l3.1,3.8   l0.1,5.3l-6.5-1.6l0,5.1l-3.8,0.1l-2.1-0.7l-2.4,2.7l-4.7-5.8l-2.6,3.9l-4-5.7l-3.1-23l-3.3-1.7L266,55l4.2-4.4l13,5.8L284.8,54.1z   "
   style="enable-background:new 0 0 509 716.1;stroke:#000000;stroke-opacity:1"
   inkscape:label="양구" /><path
   id="inje"
   style="fill:#b8b8b8;stroke:#000000;stroke-width:0.5;stroke-opacity:1"
   class="st0"
   inkscape:label="인제"
   d="m 282.5,108.7 -1.4,-7.5 5.6,-4 3.9,-0.1 v -5 l 6.5,1.5 -0.1,-5.3 -3.1,-3.9 2.1,-2 -2.4,-6.8 4.6,-13.9 4.5,-4.4 1.2,-7.3 2.8,-7.2 9.1,-2.5 v 5.8 l 5.3,1.2 1.1,10.3 h 5 l 1.2,4.7 6.9,-2.8 2.2,7.7 -2.6,4.3 5.5,8.9 -7.4,3.7 2.7,7.3 7.5,-0.8 3.4,6.3 -5.7,10.1 2,8.8 -4.6,4.4 -3.7,-3.2 -1.5,2.9 -6.8,6.5 -6.4,-6.6 -10.8,8.8 -6,-12.8 -8.5,-0.4 -7.7,-7.2 z" /><path
   id="고성군"
   class="st0"
   d="M315.8,46.1l5.3,1.2l1.1,10.3l4.9,0l1.2,4.7l6.9-2.8l2.2,7.7l4.8,2.5l12.7-6.6l-16.1-31.5   l-5.8-19.4l-5.1-5.7l-1.5-3l-5.1,4.8l-5.5,32.1L315.8,46.1z"
   style="enable-background:new 0 0 509 716.1;stroke:#000000;stroke-opacity:1"
   inkscape:label="고성" /><path
   id="yangyang"
   style="fill:#b8b8b8;stroke:#000000;stroke-width:0.5;stroke-opacity:1"
   class="st0"
   inkscape:label="양양"
   d="m 342.9,115.8 -2,-8.8 5.7,-10.1 -3.4,-6.3 -7.5,0.8 -2.7,-7.3 7.4,-3.7 17.7,-6.7 25.3,37.8 -2.8,0.6 -4.8,0.6 -0.1,0.4 v 0 l -3.4,0.8 v -0.1 l -9.4,1.4 -6.8,5.3 -1.8,-0.5 -4.1,-4 z" /><path
   style="enable-background:new 0 0 509 716.1;stroke:#000000;stroke-opacity:1;fill:#b8b8b8;fill-opacity:1;stroke-width:0.5;stroke-dasharray:none"
   d="m 379.8,690.2 -0.3,-9.3 19.6,-19.7 42.2,-10 1.2,-3.1 23.8,-0.3 4.1,5.3 5.9,0.7 1.3,2.9 -1.6,3.1 -21.4,9.5 -0.1,-0.1 h -3.4 v 0 l -3.6,1.8 -12,5.3 -1.6,0.4 h -0.1 l -7.4,1.8 h -0.1 l -5.1,0.4 v 0 l -5.8,0.3 -0.4,1.4 -4.3,0.6 -8.4,-0.1 -6.1,4.1 -6.6,4.4 v 2.4 l -6.9,-3.7 z"
   id="jeju"
   inkscape:label="제주" /><path
   id="seogwipo"
   class="st0"
   d="M454.8,669.3l21.4-9.5l0.4,0.6l0.2,0l2.8,0.5l-0.6,3.2l1.7-3.6l1.2,3.3l-14.3,22.6l-8.1,0.8   l-4.3,4.4l-11.2,0.7l-7.8,5.9l-10.3-0.9l-6.5,2.3l-1.8-2.5l-11.5,1.5l-5.7-1.6l-7.5,7l-13.2-13.7l3.1-2l6.9,3.7l0-2.4l6.6-4.4   l6.1-4.1l8.4,0.1l4.3-0.6l0.4-1.4l5.8-0.3l5.2-0.4l7.4-1.8l0.1,0l1.6-0.4l12-5.3l3.6-1.8l0,0l3.4,0L454.8,669.3z"
   style="enable-background:new 0 0 509 716.1;stroke:#000000;stroke-opacity:1"
   inkscape:label="서귀포" /><path
   id="dokdo"
   style="fill:#b8b8b8;stroke:#000000;stroke-width:0.5;stroke-dasharray:none"
   d="M 501.88086 361.77539 L 497.68945 363.78711 L 501.5 367.52344 L 504.16797 364.9375 L 501.88086 361.77539 z M 504.74023 365.80859 L 502.36328 368.15625 L 504.02539 369.33008 L 504.26367 369.03516 L 506.4043 367.27344 L 505.69141 366.39453 L 504.97656 366.6875 L 504.74023 365.80859 z "
   inkscape:label="독도" /></svg>
